<svg viewBox="0 0 130 130" fill="none" xmlns="http://www.w3.org/2000/svg">
<g clip-path="url(#clip0_1518_1831)">
<path d="M102.627 42.4661L78.5339 18.3726C78.3103 18.149 77.9874 18 77.6645 18H28.4839C27.1177 18 26 19.1177 26 20.4839V109.903C26 111.269 27.1177 112.387 28.4839 112.387H100.516C101.882 112.387 103 111.269 103 109.903V43.3603C103 43.0374 102.876 42.7145 102.627 42.491V42.4661ZM79.0058 26.2961L94.7039 41.9942C95.0268 42.3171 94.8032 42.8387 94.3561 42.8387H80.6452C79.279 42.8387 78.1613 41.721 78.1613 40.3548V26.6439C78.1613 26.1968 78.7077 25.9732 79.0058 26.2961ZM98.0323 104.935C98.0323 106.302 96.9145 107.419 95.5484 107.419H33.4516C32.0855 107.419 30.9677 106.302 30.9677 104.935V25.4516C30.9677 24.0855 32.0855 22.9677 33.4516 22.9677H73.7897V44.7265C73.7897 46.0926 74.9074 47.2103 76.2735 47.2103H98.0323V104.935Z" fill="#1967FF"/>
<path d="M75.8016 65.1687C75.8016 66.3858 76.7952 67.3794 78.0123 67.3794C79.2294 67.3794 80.2229 66.3858 80.2229 65.1687V59.9277C80.2229 58.7106 79.2294 57.7171 78.0123 57.7171C76.7952 57.7171 75.8016 58.7106 75.8016 59.9277V65.1687Z" fill="#1967FF"/>
<path d="M54.1423 67.3794C55.3594 67.3794 56.3529 66.3858 56.3529 65.1687V59.9277C56.3529 58.7106 55.3594 57.7171 54.1423 57.7171C52.9252 57.7171 51.9316 58.7106 51.9316 59.9277V65.1687C51.9316 66.3858 52.9252 67.3794 54.1423 67.3794Z" fill="#1967FF"/>
<path d="M64.5 81.2891C55.7568 81.2891 49.1249 86.4058 46.7155 94.9752C46.4671 95.8942 46.9887 96.8629 47.9326 97.1113C48.8516 97.3597 49.8203 96.8381 50.0687 95.8942C52.0558 88.8152 57.2968 84.7416 64.5 84.7416C71.7033 84.7416 76.9442 88.8152 78.9313 95.8942C79.1549 96.6642 79.8503 97.161 80.5955 97.161C80.7445 97.161 80.9184 97.161 81.0674 97.0865C81.9865 96.8381 82.5329 95.8694 82.2845 94.9504C79.9 86.381 73.2432 81.2642 64.5 81.2642V81.2891Z" fill="#1967FF"/>
<path d="M66.3132 69.8632C66.6858 70.7326 67.4807 71.3784 68.3997 71.4529C69.269 71.5026 69.9645 71.751 70.3123 72.1732C70.4613 72.3223 71.1319 73.1916 69.7658 74.5081C69.1697 75.0793 69.1449 76.0232 69.7161 76.6194C70.0142 76.9174 70.3868 77.0664 70.7842 77.0664C71.1816 77.0664 71.5294 76.9174 71.8274 76.6442C74.4107 74.1603 73.6407 71.4032 72.5478 70.211C71.579 69.0435 70.1136 68.6461 68.971 68.5219L66.5616 62.8339C66.2387 62.0639 65.3694 61.7161 64.5994 62.039C63.8294 62.3619 63.4816 63.2313 63.8045 64.0013L66.2884 69.9129L66.3132 69.8632Z" fill="#1967FF"/>
</g>
<defs>
<clipPath id="clip0_1518_1831">
<rect width="77" height="94.3871" fill="white" transform="translate(26 18)"/>
</clipPath>
</defs>
</svg>
