<svg width="30" height="30" viewBox="0 0 30 30" fill="currentColor" xmlns="http://www.w3.org/2000/svg">
<path d="M13.4125 20.7822C12.9724 20.7822 12.5952 20.6251 12.2809 20.3107L7.59739 15.47C7.00016 14.8414 7.00016 13.8355 7.62882 13.2383C8.25748 12.6411 9.2319 12.6411 9.86056 13.2697L13.4125 16.9474L20.3277 9.78067C20.925 9.15202 21.9308 9.15202 22.5595 9.74924C23.1881 10.3465 23.1881 11.3523 22.5909 11.981L14.5441 20.3107C14.2612 20.6251 13.8525 20.7822 13.4125 20.7822Z"/>
<path d="M15.0785 29.7722C6.93735 29.7722 0.336426 23.1713 0.336426 15.0302C0.336426 6.88901 6.93735 0.288086 15.0785 0.288086C23.2196 0.288086 29.8206 6.88901 29.8206 15.0302C29.8206 23.1713 23.2196 29.7722 15.0785 29.7722ZM15.0785 3.46282C8.6976 3.46282 3.54259 8.64926 3.54259 14.9987C3.54259 21.3482 8.72903 26.5346 15.0785 26.5346C21.4279 26.5346 26.6144 21.3482 26.6144 14.9987C26.6144 8.64926 21.4279 3.46282 15.0785 3.46282Z"/>
</svg>
