<svg width="50" height="49" viewBox="0 0 50 49" fill="none" xmlns="http://www.w3.org/2000/svg">
<g clip-path="url(#clip0_1940_808)">
<path d="M32.7667 48.889H7.23333C3.24444 48.889 0 45.6446 0 41.6557V16.1223C0 13.8557 1.07778 11.689 2.9 10.3335C3.63333 9.7779 4.67778 9.93345 5.23333 10.6668C5.78889 11.4001 5.63333 12.4446 4.9 13.0001C3.91111 13.7446 3.33333 14.8779 3.33333 16.1223V41.6557C3.33333 43.8112 5.07778 45.5557 7.23333 45.5557H32.7667C33.6889 45.5557 34.4333 46.3001 34.4333 47.2223C34.4333 48.1446 33.6889 48.889 32.7667 48.889Z" fill="#A2A2A8"/>
<path d="M44.9667 38.989L23.8667 18.9001C23.2444 18.3001 22.2444 18.289 21.6 18.8668L12.7778 26.8001L10.5444 24.3223L19.3667 16.389C21.3 14.6557 24.2778 14.689 26.1555 16.489L47.2555 36.5779L44.9555 38.989H44.9667Z" fill="#A2A2A8"/>
<path d="M47.2222 30.1222L38.4667 22.2333C37.8111 21.6444 36.8 21.6667 36.1778 22.2889L32.8556 25.6111L30.5 23.2555L33.8222 19.9333C35.7 18.0555 38.7222 17.9778 40.7 19.7555L49.4556 27.6444L47.2222 30.1222Z" fill="#A2A2A8"/>
<path d="M36.6667 14.4445C38.2008 14.4445 39.4445 13.2008 39.4445 11.6667C39.4445 10.1326 38.2008 8.88892 36.6667 8.88892C35.1326 8.88892 33.8889 10.1326 33.8889 11.6667C33.8889 13.2008 35.1326 14.4445 36.6667 14.4445Z" fill="#A2A2A8"/>
<path d="M42.6111 41.1111H17.3889C13.3111 41.1111 10 37.8 10 33.7222V7.38889C10 3.31111 13.3111 0 17.3889 0H42.6C46.6778 0 49.9889 3.31111 49.9889 7.38889V33.7111C49.9889 37.7889 46.6778 41.1 42.6 41.1L42.6111 41.1111ZM17.3889 3.33333C15.1556 3.33333 13.3333 5.15556 13.3333 7.38889V33.7111C13.3333 35.9444 15.1556 37.7667 17.3889 37.7667H42.6C44.8333 37.7667 46.6556 35.9444 46.6556 33.7111V7.38889C46.6556 5.15556 44.8333 3.33333 42.6 3.33333H17.3889Z" fill="#A2A2A8"/>
</g>
<defs>
<clipPath id="clip0_1940_808">
<rect width="50" height="48.8889" fill="white"/>
</clipPath>
</defs>
</svg>
