<svg width="20" height="20" viewBox="0 0 20 20" fill="none" xmlns="http://www.w3.org/2000/svg">
<path d="M19.5693 18.431L14.4193 13.281C14.2893 13.151 14.2893 12.961 14.3893 12.821C15.6293 11.191 16.2493 9.06098 15.9193 6.79098C15.3993 3.26098 12.4693 0.440981 8.91929 0.0509806C3.77929 -0.519019 -0.510707 3.77098 0.0492934 8.90098C0.439293 12.451 3.25929 15.381 6.78929 15.901C9.05929 16.231 11.1793 15.611 12.8193 14.371C12.9593 14.261 13.1593 14.271 13.2793 14.401L18.4293 19.551C18.5893 19.711 18.7893 19.781 18.9993 19.781C19.2093 19.781 19.4093 19.701 19.5693 19.551C19.8793 19.241 19.8793 18.741 19.5693 18.431ZM1.76929 9.46098C0.729293 4.80098 4.79929 0.720981 9.46929 1.76098C11.8193 2.28098 13.7193 4.18098 14.2393 6.53098C15.2793 11.191 11.1993 15.271 6.53929 14.231C4.18929 13.711 2.28929 11.811 1.76929 9.46098Z" fill="white"/>
</svg>
