<svg width="20" height="20" viewBox="0 0 20 20" xmlns="http://www.w3.org/2000/svg">
<path d="M19.57 18.44L14.42 13.29C14.29 13.16 14.29 12.97 14.39 12.83C15.63 11.2 16.25 9.07001 15.92 6.80001C15.4 3.27001 12.47 0.450014 8.92003 0.0600138C3.78003 -0.509986 -0.509974 3.78001 0.0500258 8.91001C0.440026 12.46 3.26003 15.39 6.79003 15.91C9.06003 16.24 11.18 15.62 12.82 14.38C12.96 14.27 13.16 14.28 13.28 14.41L18.43 19.56C18.59 19.72 18.79 19.79 19 19.79C19.21 19.79 19.41 19.71 19.57 19.56C19.88 19.25 19.88 18.74 19.57 18.43V18.44ZM1.76003 9.47001C0.720026 4.81001 4.80003 0.730014 9.47003 1.77001C11.82 2.29001 13.72 4.19001 14.24 6.54001C15.28 11.2 11.2 15.28 6.54003 14.24C4.19003 13.72 2.29003 11.82 1.77003 9.47001H1.76003Z" />
</svg>
