<svg width="130" height="130" viewBox="0 0 130 130" fill="none" xmlns="http://www.w3.org/2000/svg">
<g clip-path="url(#clip0_1171_2897)">
<path d="M100.516 111H28.4839C27.1177 111 26 109.899 26 108.553V20.4474C26 19.1013 27.1177 18 28.4839 18H76.9194C77.6148 18 78.1613 18.5384 78.1613 19.2237V40.0263C78.1613 41.3724 79.279 42.4737 80.6452 42.4737H101.758C102.454 42.4737 103 43.0121 103 43.6974V108.553C103 109.899 101.882 111 100.516 111ZM33.4516 106.105H95.5484C96.9145 106.105 98.0323 105.004 98.0323 103.658V46.8055H76.2735C74.9074 46.7811 73.7897 45.6797 73.7897 44.3337V22.8703H33.4516C32.0855 22.8947 30.9677 23.9961 30.9677 25.3421V103.658C30.9677 105.004 32.0855 106.105 33.4516 106.105Z" fill="#1967FF"/>
<path d="M100.516 111H28.4839C27.1177 111 26 109.899 26 108.553V20.4474C26 19.1013 27.1177 18 28.4839 18H77.6397C77.9626 18 78.2855 18.1224 78.509 18.3671L102.627 42.1311C102.851 42.3513 103 42.6695 103 42.9876V108.553C103 109.899 101.882 111 100.516 111ZM30.9677 106.105H95.5484C96.9145 106.105 98.0323 105.004 98.0323 103.658V44.9211L75.6774 22.8947H30.9677V106.105Z" fill="#1967FF"/>
<path d="M80.2229 55.8608C80.2229 54.6578 79.2332 53.6826 78.0123 53.6826C76.7914 53.6826 75.8016 54.6578 75.8016 55.8608V61.0003C75.8016 62.2032 76.7914 63.1784 78.0123 63.1784C79.2332 63.1784 80.2229 62.2032 80.2229 61.0003V55.8608Z" fill="#1967FF"/>
<path d="M56.3778 55.8608C56.3778 54.6578 55.388 53.6826 54.1671 53.6826C52.9462 53.6826 51.9565 54.6578 51.9565 55.8608V61.0003C51.9565 62.2032 52.9462 63.1784 54.1671 63.1784C55.388 63.1784 56.3778 62.2032 56.3778 61.0003V55.8608Z" fill="#1967FF"/>
<path d="M80.5955 92.5468C79.8255 92.5468 79.13 92.0574 78.9313 91.2987C76.9442 84.3237 71.7033 80.31 64.5 80.31C57.2968 80.31 52.0558 84.3237 50.0687 91.2987C49.8204 92.2042 48.8516 92.7426 47.9326 92.4979C47.0136 92.2531 46.4671 91.2987 46.7155 90.3931C49.1 81.9497 55.7568 76.9081 64.5 76.9081C73.2433 76.9081 79.8752 81.9497 82.2845 90.3931C82.5329 91.2987 82.0113 92.2531 81.0675 92.4979C80.9184 92.5468 80.7445 92.5713 80.5955 92.5713V92.5468Z" fill="#1967FF"/>
<path d="M70.8091 72.7232C70.4116 72.7232 70.0391 72.5763 69.741 72.2826C69.1697 71.6953 69.1945 70.7653 69.7907 70.2024C71.132 68.9297 70.4861 68.0732 70.3371 67.9018C69.9894 67.5103 69.3187 67.2655 68.4991 67.1921C67.5552 67.1187 66.7355 66.5313 66.3629 65.6503L63.8542 59.8011C63.5313 59.0424 63.9039 58.1858 64.6491 57.8676C65.4191 57.5495 66.2884 57.9166 66.6113 58.6508L69.0207 64.2553C70.1632 64.3776 71.6287 64.7692 72.5974 65.9195C73.6903 67.0942 74.4603 69.8108 71.8771 72.2582C71.579 72.5274 71.2065 72.6742 70.8339 72.6742L70.8091 72.7232Z" fill="#1967FF"/>
</g>
<defs>
<clipPath id="clip0_1171_2897">
<rect width="77" height="93" fill="white" transform="translate(26 18)"/>
</clipPath>
</defs>
</svg>
