<svg width="70" height="70" viewBox="0 0 70 70" fill="none" xmlns="http://www.w3.org/2000/svg">
<g clip-path="url(#clip0_1164_1110)">
<path d="M16.4542 30.3984C15.6574 30.3984 15 29.761 15 28.9442V21.1554C15 17.7689 17.7689 15 21.1554 15H28.9442C29.741 15 30.3984 15.6375 30.3984 16.4542C30.3984 17.2709 29.761 17.9084 28.9442 17.9084H21.1554C19.3625 17.9084 17.8884 19.3825 17.8884 21.1753V28.9641C17.8884 29.761 17.251 30.4183 16.4343 30.4183L16.4542 30.3984Z" fill="#0068FF"/>
<path d="M53.4861 30.3984C52.6893 30.3984 52.0319 29.761 52.0319 28.9442V21.1554C52.0319 19.3626 50.5578 17.8885 48.765 17.8885H40.9762C40.1793 17.8885 39.522 17.251 39.522 16.4343C39.522 15.6176 40.1594 14.9801 40.9762 14.9801H48.765C52.1515 14.9801 54.9204 17.749 54.9204 21.1355V28.9243C54.9204 29.7211 54.2829 30.3785 53.4662 30.3785L53.4861 30.3984Z" fill="#0068FF"/>
<path d="M28.9442 55H21.1554C17.7689 55 15 52.231 15 48.8446V41.0557C15 40.2589 15.6375 39.6016 16.4542 39.6016C17.2709 39.6016 17.9084 40.239 17.9084 41.0557V48.8446C17.9084 50.6374 19.3825 52.1115 21.1753 52.1115H28.9641C29.761 52.1115 30.4183 52.749 30.4183 53.5657C30.4183 54.3824 29.7809 55.0199 28.9641 55.0199L28.9442 55Z" fill="#0068FF"/>
<path d="M48.785 55H40.9962C40.1994 55 39.542 54.3625 39.542 53.5458C39.542 52.7291 40.1794 52.0916 40.9962 52.0916H48.785C50.5778 52.0916 52.052 50.6175 52.052 48.8247V41.0358C52.052 40.239 52.6894 39.5817 53.5061 39.5817C54.3229 39.5817 54.9603 40.2191 54.9603 41.0358V48.8247C54.9603 52.2111 52.1914 54.9801 48.8049 54.9801L48.785 55Z" fill="#0068FF"/>
<path d="M34.9002 45.5977C31.932 45.5977 28.944 44.8407 26.2946 43.3267C25.6173 42.9283 25.3384 42.0518 25.7368 41.3546C26.1352 40.6773 26.9719 40.3985 27.6691 40.7969H27.7289C32.191 43.3666 37.7089 43.3467 42.1711 40.7969C42.8683 40.3985 43.7448 40.6375 44.1233 41.3347C44.5217 42.0319 44.2826 42.9084 43.5854 43.2869C40.9161 44.8208 37.9281 45.5777 34.9201 45.5777L34.9002 45.5977Z" fill="#0068FF"/>
<path d="M42.3506 23.9641H42.3306C41.5275 23.9641 40.8765 24.6152 40.8765 25.4183V27.1912C40.8765 27.9943 41.5275 28.6454 42.3306 28.6454H42.3506C43.1537 28.6454 43.8048 27.9943 43.8048 27.1912V25.4183C43.8048 24.6152 43.1537 23.9641 42.3506 23.9641Z" fill="#0068FF"/>
<path d="M27.5898 23.9641H27.5699C26.7668 23.9641 26.1157 24.6152 26.1157 25.4183V27.1912C26.1157 27.9943 26.7668 28.6454 27.5699 28.6454H27.5898C28.393 28.6454 29.044 27.9943 29.044 27.1912V25.4183C29.044 24.6152 28.393 23.9641 27.5898 23.9641Z" fill="#0068FF"/>
<path d="M38.7651 39.1235C38.4464 39.1235 38.1476 39.0039 37.9086 38.7649C37.4504 38.2868 37.4703 37.5298 37.9484 37.0717C39.0241 36.0358 38.5062 35.3386 38.3867 35.1992C38.1078 34.8804 37.5699 34.6812 36.9126 34.6215C36.1556 34.5617 35.4982 34.0836 35.1994 33.3665L33.1875 28.6055C32.9285 27.988 33.2273 27.2908 33.8249 27.0318C34.4424 26.7729 35.1396 27.0717 35.3986 27.6693L37.3309 32.231C38.2472 32.3306 39.4225 32.6493 40.1994 33.5856C41.0759 34.5418 41.6934 36.7529 39.6217 38.745C39.3827 38.9641 39.0839 39.0836 38.7851 39.0836L38.7651 39.1235Z" fill="#0068FF"/>
</g>
<defs>
<clipPath id="clip0_1164_1110">
<rect width="39.9203" height="40" fill="white" transform="translate(15 15)"/>
</clipPath>
</defs>
</svg>
