<svg width="70" height="70" viewBox="0 0 70 70" fill="none" xmlns="http://www.w3.org/2000/svg">
<g clip-path="url(#clip0_1164_1106)">
<path d="M35.9708 19.1051C36.2291 18.8637 36.6502 18.9597 36.7899 19.2844C38.0504 22.2154 39.6388 24.1502 39.7261 24.2594L39.9609 24.5176L40.2426 24.7289C42.4348 26.4152 45.0054 27.0038 47.071 27.1574C47.483 27.1881 47.8451 27.4511 47.9814 27.8412L52.3332 40.294C52.6853 41.327 53.2018 42.313 53.8122 43.2286C55.2913 45.412 54.9156 48.417 52.9671 50.1778L51.2863 51.7088C50.8976 52.0628 50.3011 52.0554 49.9213 51.6918L26.5682 29.3338C26.1534 28.9367 26.1575 28.2727 26.5771 27.8807L35.9708 19.1051ZM37.3785 14C37.0263 14 36.6742 14.1174 36.3924 14.3756L23.4567 26.4662C22.2359 27.6165 22.2124 29.5416 23.4332 30.7155L49.2812 55.4835C49.6334 55.8357 50.1029 56 50.5724 56C51.042 56 51.4645 55.8357 51.8402 55.507L55.1034 52.5254C58.2259 49.6847 58.8128 44.9659 56.4416 41.4679C55.9721 40.787 55.5965 40.0358 55.3382 39.2376L50.5959 25.7149C50.2437 24.7054 49.3047 24.0246 48.2482 24.0246C46.6048 24.0246 44.1163 23.7194 42.1677 22.2169C42.1677 22.2169 39.6322 19.1649 38.7401 15.0565C38.5993 14.3756 37.9889 14 37.3785 14Z" fill="#0068FF"/>
<path d="M22.9871 38.3454H13.526C12.6808 38.3454 12 37.6646 12 36.8195C12 35.9743 12.6808 35.2935 13.526 35.2935H22.9871C23.8323 35.2935 24.5131 35.9743 24.5131 36.8195C24.5131 37.6646 23.8323 38.3454 22.9871 38.3454Z" fill="#0068FF"/>
<path d="M30.5467 46.8205H13.526C12.6808 46.8205 12 46.1397 12 45.2945C12 44.4494 12.6808 43.7686 13.526 43.7686H30.5467C31.3918 43.7686 32.0727 44.4494 32.0727 45.2945C32.0727 46.1397 31.3918 46.8205 30.5467 46.8205Z" fill="#0068FF"/>
<path d="M39.1392 55.3661H13.526C12.6808 55.3661 12 54.6852 12 53.8401C12 52.9949 12.6808 52.3141 13.526 52.3141H39.1392C39.9844 52.3141 40.6652 52.9949 40.6652 53.8401C40.6652 54.6852 39.9844 55.3661 39.1392 55.3661Z" fill="#0068FF"/>
</g>
<defs>
<clipPath id="clip0_1164_1106">
<rect width="45.8737" height="42" fill="white" transform="translate(12 14)"/>
</clipPath>
</defs>
</svg>
