<svg width="40" height="40" viewBox="0 0 40 40" fill="white" xmlns="http://www.w3.org/2000/svg">
<g clip-path="url(#clip0_2190_2552)">
<path d="M32.3057 12.2118L24.3254 4.23143L24.0939 4H8.99509C7.8938 4 7 4.8938 7 5.99509V33.9263C7 35.0276 7.8938 35.9214 8.99509 35.9214H20.1676C20.6065 35.9214 20.9656 35.5623 20.9656 35.1234C20.9656 34.6845 20.6065 34.3254 20.1676 34.3254H8.99509C8.77164 34.3254 8.59607 34.1498 8.59607 33.9263V5.99509C8.59607 5.77164 8.77164 5.59607 8.99509 5.59607H22.9607V11.5813C22.9607 12.6826 23.8545 13.5764 24.9558 13.5764H30.9411V21.7962C30.9411 22.2351 31.3002 22.5942 31.7391 22.5942C32.178 22.5942 32.5371 22.2351 32.5371 21.7962V12.4512L32.3057 12.2198V12.2118ZM24.5568 11.5813V6.7213L29.8158 11.9804H24.9558C24.7323 11.9804 24.5568 11.8048 24.5568 11.5813Z" />
<path d="M20.1677 12.7784H11.3893C10.9504 12.7784 10.5913 12.4193 10.5913 11.9804C10.5913 11.5415 10.9504 11.1824 11.3893 11.1824H20.1677C20.6067 11.1824 20.9658 11.5415 20.9658 11.9804C20.9658 12.4193 20.6067 12.7784 20.1677 12.7784Z" />
<path d="M28.1481 17.5665H11.3893C10.9504 17.5665 10.5913 17.2074 10.5913 16.7685C10.5913 16.3296 10.9504 15.9705 11.3893 15.9705H28.1481C28.587 15.9705 28.9461 16.3296 28.9461 16.7685C28.9461 17.2074 28.587 17.5665 28.1481 17.5665Z" />
<path d="M28.1481 22.3549H11.3893C10.9504 22.3549 10.5913 21.9957 10.5913 21.5568C10.5913 21.1179 10.9504 20.7588 11.3893 20.7588H28.1481C28.587 20.7588 28.9461 21.1179 28.9461 21.5568C28.9461 21.9957 28.587 22.3549 28.1481 22.3549Z" />
<path d="M18.5717 27.1429H11.3893C10.9504 27.1429 10.5913 26.7838 10.5913 26.3449C10.5913 25.906 10.9504 25.5469 11.3893 25.5469H18.5717C19.0106 25.5469 19.3697 25.906 19.3697 26.3449C19.3697 26.7838 19.0106 27.1429 18.5717 27.1429Z" />
<path d="M32.7843 28.5236L29.233 24.7489C28.9138 24.4137 28.4669 24.2222 28.012 24.2222C27.5492 24.2222 27.1023 24.4137 26.791 24.7489L23.2398 28.5156C22.9365 28.8348 22.9525 29.3456 23.2717 29.6408C23.5909 29.9441 24.0937 29.9281 24.3969 29.6089L27.198 26.6322V36.089C27.198 36.5279 27.5572 36.887 27.9961 36.887C28.435 36.887 28.7941 36.5279 28.7941 36.089V26.6083L31.6192 29.6089C31.7788 29.7765 31.9863 29.8563 32.2017 29.8563C32.4012 29.8563 32.5928 29.7845 32.7524 29.6408C33.0716 29.3376 33.0875 28.8348 32.7843 28.5156V28.5236Z" />
</g>
<defs>
<clipPath id="clip0_2190_2552">
<rect width="26" height="32.903" fill="white" transform="translate(7 4)"/>
</clipPath>
</defs>
</svg>
