<svg width="40" height="40" viewBox="0 0 40 40" fill="white" xmlns="http://www.w3.org/2000/svg">
<g clip-path="url(#clip0_1216_1328)">
<path d="M23.0305 35.5344H8.9084C7.85496 35.5344 7 34.6794 7 33.626V6.9084C7 5.85496 7.85496 5 8.9084 5H23.0305C23.4504 5 23.7939 5.34351 23.7939 5.76336V12.2519C23.7939 12.4656 23.9618 12.6336 24.1756 12.6336H30.6641C31.084 12.6336 31.4275 12.9771 31.4275 13.3969V25.6107C31.4275 26.0305 31.084 26.374 30.6641 26.374C30.2443 26.374 29.9008 26.0305 29.9008 25.6107V14.1603H24.1756C23.1221 14.1603 22.2672 13.3053 22.2672 12.2519V6.52672H8.9084C8.69466 6.52672 8.52672 6.69466 8.52672 6.9084V33.626C8.52672 33.8397 8.69466 34.0076 8.9084 34.0076H23.0305C23.4504 34.0076 23.7939 34.3511 23.7939 34.771C23.7939 35.1908 23.4504 35.5344 23.0305 35.5344Z" />
<path d="M23.0305 35.5344H8.9084C7.85496 35.5344 7 34.6794 7 33.626V6.9084C7 5.85496 7.85496 5 8.9084 5H23.3435L31.4275 13.084V25.6107C31.4275 26.0305 31.084 26.374 30.6641 26.374C30.2443 26.374 29.9008 26.0305 29.9008 25.6107V13.7099L22.7176 6.52672H8.9084C8.69466 6.52672 8.52672 6.69466 8.52672 6.9084V33.626C8.52672 33.8397 8.69466 34.0076 8.9084 34.0076H23.0305C23.4504 34.0076 23.7939 34.3511 23.7939 34.771C23.7939 35.1908 23.4504 35.5344 23.0305 35.5344Z" />
<path d="M31.6415 34.8015L28.0079 31.1679C27.9163 31.0763 27.9163 30.9389 27.985 30.8396C28.8552 29.687 29.298 28.1908 29.0613 26.5877C28.6949 24.0915 26.6262 22.1068 24.1224 21.832C20.5041 21.4351 17.4736 24.458 17.8705 28.0839C18.1453 30.5877 20.13 32.6564 22.6262 33.0228C24.2293 33.2595 25.7255 32.8167 26.8781 31.9465C26.9774 31.8702 27.1148 31.8778 27.2064 31.9694L30.84 35.603C30.9468 35.7099 31.0919 35.7709 31.2369 35.7709C31.382 35.7709 31.527 35.7175 31.6339 35.603C31.8552 35.3816 31.8552 35.0228 31.6339 34.8015H31.6415ZM19.0842 28.4732C18.3514 25.1831 21.2293 22.3053 24.5194 23.0381C26.1758 23.4045 27.5117 24.748 27.8858 26.4045C28.6186 29.6946 25.7407 32.5725 22.4507 31.8396C20.7942 31.4656 19.4583 30.1297 19.0842 28.4732Z" fill="white"/>
<path d="M31.2445 35.9542C31.046 35.9542 30.8551 35.8779 30.7101 35.7328L27.0765 32.0993C27.0765 32.0993 27.0231 32.084 27.0002 32.0993C25.7406 33.0458 24.1834 33.4428 22.6032 33.2138C20.0383 32.8397 17.9696 30.687 17.6872 28.1069C17.4887 26.3206 18.0994 24.5802 19.359 23.3206C20.6185 22.0611 22.359 21.4504 24.1452 21.6489C26.7254 21.9313 28.878 24 29.2521 26.5649C29.4811 28.1451 29.0918 29.7023 28.1376 30.9618C28.1223 30.9847 28.1223 31.0153 28.1376 31.0382L31.7712 34.6718C32.0689 34.9695 32.0689 35.4428 31.7712 35.7405C31.6261 35.8855 31.4353 35.9619 31.2368 35.9619L31.2445 35.9542ZM27.0383 31.7023C27.1529 31.7023 27.2597 31.7481 27.3437 31.8321L30.9773 35.4657C31.1147 35.6031 31.3666 35.6107 31.504 35.4657C31.6414 35.3206 31.649 35.084 31.504 34.939L27.8704 31.3054C27.7177 31.1451 27.7025 30.9084 27.8322 30.7328C28.7177 29.5573 29.0918 28.0993 28.8704 26.6183C28.5193 24.2214 26.5116 22.2901 24.0994 22.0229C22.4353 21.8397 20.8017 22.4122 19.6261 23.5878C18.4506 24.7634 17.878 26.397 18.0612 28.0611C18.3284 30.4733 20.2597 32.4809 22.6567 32.8321C24.13 33.0458 25.5956 32.6794 26.7712 31.7939C26.8551 31.7328 26.9467 31.7023 27.0383 31.7023ZM23.4735 32.1451C23.1223 32.1451 22.7635 32.1069 22.4048 32.0306C20.6872 31.6489 19.275 30.2367 18.8933 28.5191C18.5345 26.9084 19.0078 25.2672 20.1529 24.1145C21.2979 22.9695 22.9467 22.4962 24.5574 22.855C26.2979 23.2443 27.6796 24.6183 28.0689 26.3664C28.4277 27.9771 27.9544 29.6183 26.8093 30.771C25.9162 31.6641 24.7177 32.1527 23.4735 32.1527V32.1451ZM23.4964 23.1145C22.3513 23.1145 21.2521 23.5573 20.4277 24.3817C19.3742 25.4351 18.9391 26.9542 19.2674 28.4275C19.6185 30 20.9162 31.2977 22.4887 31.6489C23.9696 31.9771 25.4811 31.5496 26.5345 30.4886C27.588 29.4351 28.0231 27.9237 27.6948 26.4428C27.3437 24.8702 26.046 23.5725 24.4735 23.2214C24.1452 23.1451 23.817 23.1145 23.4964 23.1145Z" />
<path d="M19.5954 13.3968H11.1984C10.7786 13.3968 10.4351 13.0533 10.4351 12.6335C10.4351 12.2136 10.7786 11.8701 11.1984 11.8701H19.5954C20.0152 11.8701 20.3587 12.2136 20.3587 12.6335C20.3587 13.0533 20.0152 13.3968 19.5954 13.3968Z" />
<path d="M27.229 17.9772H11.1984C10.7786 17.9772 10.4351 17.6336 10.4351 17.2138C10.4351 16.794 10.7786 16.4504 11.1984 16.4504H27.229C27.6488 16.4504 27.9923 16.794 27.9923 17.2138C27.9923 17.6336 27.6488 17.9772 27.229 17.9772Z" />
<path d="M16.5419 22.5572H11.1984C10.7786 22.5572 10.4351 22.2137 10.4351 21.7939C10.4351 21.374 10.7786 21.0305 11.1984 21.0305H16.5419C16.9618 21.0305 17.3053 21.374 17.3053 21.7939C17.3053 22.2137 16.9618 22.5572 16.5419 22.5572Z" />
<path d="M14.2519 27.1373H11.1984C10.7786 27.1373 10.4351 26.7938 10.4351 26.374C10.4351 25.9541 10.7786 25.6106 11.1984 25.6106H14.2519C14.6717 25.6106 15.0152 25.9541 15.0152 26.374C15.0152 26.7938 14.6717 27.1373 14.2519 27.1373Z" />
</g>
<defs>
<clipPath id="clip0_1216_1328">
<rect width="25" height="30.9542" transform="translate(7 5)"/>
</clipPath>
</defs>
</svg>
