<svg width="40" height="40" viewBox="0 0 40 40" fill="white" xmlns="http://www.w3.org/2000/svg">
<g clip-path="url(#clip0_1216_1412)">
<path d="M19.4348 34.1449H8.88406C7.84406 34.1449 7 33.3009 7 32.2609V5.88406C7 4.84406 7.84406 4 8.88406 4H22.8261C23.2406 4 23.5797 4.33913 23.5797 4.75362V11.1594C23.5797 11.3704 23.7455 11.5362 23.9565 11.5362H30.3623C30.7768 11.5362 31.1159 11.8754 31.1159 12.2899V20.8058C31.1159 21.2203 30.7768 21.5594 30.3623 21.5594C29.9478 21.5594 29.6087 21.2203 29.6087 20.8058V13.0435H23.9565C22.9165 13.0435 22.0725 12.1994 22.0725 11.1594V5.50725H8.88406C8.67304 5.50725 8.50725 5.67304 8.50725 5.88406V32.2609C8.50725 32.4719 8.67304 32.6377 8.88406 32.6377H19.4348C19.8493 32.6377 20.1884 32.9768 20.1884 33.3913C20.1884 33.8058 19.8493 34.1449 19.4348 34.1449Z" />
<path d="M19.4348 34.1449H8.88406C7.84406 34.1449 7 33.3009 7 32.2609V5.88406C7 4.84406 7.84406 4 8.88406 4H23.1351L31.1159 11.9809V20.8058C31.1159 21.2203 30.7768 21.5594 30.3623 21.5594C29.9478 21.5594 29.6087 21.2203 29.6087 20.8058V12.5988L22.5171 5.50725H8.88406C8.67304 5.50725 8.50725 5.67304 8.50725 5.88406V32.2609C8.50725 32.4719 8.67304 32.6377 8.88406 32.6377H19.4348C19.8493 32.6377 20.1884 32.9768 20.1884 33.3913C20.1884 33.8058 19.8493 34.1449 19.4348 34.1449Z" />
<path d="M19.4346 12.29H11.1447C10.7302 12.29 10.3911 11.9508 10.3911 11.5363C10.3911 11.1218 10.7302 10.7827 11.1447 10.7827H19.4346C19.8491 10.7827 20.1882 11.1218 20.1882 11.5363C20.1882 11.9508 19.8491 12.29 19.4346 12.29Z" />
<path d="M26.9708 16.8117H11.1447C10.7302 16.8117 10.3911 16.4726 10.3911 16.0581C10.3911 15.6436 10.7302 15.3044 11.1447 15.3044H26.9708C27.3853 15.3044 27.7244 15.6436 27.7244 16.0581C27.7244 16.4726 27.3853 16.8117 26.9708 16.8117Z" />
<path d="M26.9708 21.3334H11.1447C10.7302 21.3334 10.3911 20.9943 10.3911 20.5798C10.3911 20.1653 10.7302 19.8262 11.1447 19.8262H26.9708C27.3853 19.8262 27.7244 20.1653 27.7244 20.5798C27.7244 20.9943 27.3853 21.3334 26.9708 21.3334Z" />
<path d="M17.9273 25.8551H11.1447C10.7302 25.8551 10.3911 25.516 10.3911 25.1015C10.3911 24.687 10.7302 24.3479 11.1447 24.3479H17.9273C18.3418 24.3479 18.681 24.687 18.681 25.1015C18.681 25.516 18.3418 25.8551 17.9273 25.8551Z" />
<path d="M26.5943 35.1246C23.0598 35.1246 20.1885 32.2533 20.1885 28.7188C20.1885 25.1843 23.0598 22.313 26.5943 22.313C30.1288 22.313 33.0001 25.1843 33.0001 28.7188C33.0001 32.2533 30.1288 35.1246 26.5943 35.1246ZM26.5943 23.8202C23.8963 23.8202 21.6957 26.0208 21.6957 28.7188C21.6957 31.4168 23.8963 33.6173 26.5943 33.6173C29.2922 33.6173 31.4928 31.4168 31.4928 28.7188C31.4928 26.0208 29.2922 23.8202 26.5943 23.8202Z" />
<path d="M25.592 31.3339C25.592 31.3339 25.5619 31.3339 25.5468 31.3339C25.3735 31.3188 25.2152 31.2359 25.1097 31.0927L23.0975 28.4098C22.894 28.146 22.9543 27.7692 23.2181 27.5658C23.4819 27.3623 23.8662 27.4226 24.0621 27.6863L25.3961 29.4649C25.5317 29.6458 25.803 29.6684 25.9613 29.5026L29.1793 26.2846C29.4129 26.051 29.7972 26.051 30.0308 26.2846C30.2645 26.5182 30.2645 26.9026 30.0308 27.1362L26.014 31.153C25.901 31.266 25.7503 31.3263 25.5845 31.3263L25.592 31.3339Z" />
</g>
<defs>
<clipPath id="clip0_1216_1412">
<rect width="26" height="31.1246" fill="white" transform="translate(7 4)"/>
</clipPath>
</defs>
</svg>
