<?xml version="1.0" standalone="no"?>
<!DOCTYPE svg PUBLIC "-//W3C//DTD SVG 20010904//EN"
 "http://www.w3.org/TR/2001/REC-SVG-20010904/DTD/svg10.dtd">
<svg version="1.0" xmlns="http://www.w3.org/2000/svg"
 width="1024.000000pt" height="1024.000000pt" viewBox="0 0 1024.000000 1024.000000"
 preserveAspectRatio="xMidYMid meet">
<metadata>
Created by potrace 1.14, written by Peter Selinger 2001-2017
</metadata>
<g transform="translate(0.000000,1024.000000) scale(0.100000,-0.100000)"
fill="#000000" stroke="none">
<path d="M765 10146 c-16 -50 -32 -95 -36 -101 -4 -5 -8 -13 -8 -17 -1 -5 -1
-9 -2 -10 0 -2 -2 -16 -4 -33 -1 -16 -5 -48 -9 -70 -3 -22 -8 -60 -12 -85 -3
-25 -8 -67 -9 -95 -2 -27 -4 -50 -5 -50 -3 0 -17 -140 -27 -280 -10 -123 -10
-622 0 -725 11 -122 25 -257 32 -305 3 -28 9 -60 22 -125 3 -14 6 -34 8 -45 2
-11 6 -32 9 -47 3 -16 8 -38 11 -50 2 -13 9 -43 16 -68 6 -25 13 -54 15 -66 2
-12 10 -40 19 -63 8 -23 14 -42 13 -44 -2 -3 32 -118 42 -142 5 -11 12 -31 15
-45 4 -14 13 -38 20 -55 7 -16 25 -61 40 -100 30 -74 110 -250 125 -275 5 -8
19 -35 31 -58 30 -60 143 -247 185 -305 19 -26 34 -52 34 -57 0 -6 4 -10 8
-10 4 0 15 -12 24 -27 9 -16 27 -41 40 -57 77 -98 157 -196 188 -231 61 -70
312 -318 379 -375 36 -30 81 -69 100 -86 20 -17 88 -70 151 -117 63 -48 120
-91 125 -95 63 -49 343 -226 465 -294 25 -14 63 -35 85 -48 83 -47 476 -240
490 -240 2 0 38 -16 79 -35 41 -19 82 -35 91 -35 8 0 15 -4 15 -10 0 -5 3 -9
8 -8 7 1 15 -2 122 -45 30 -12 57 -22 60 -22 3 0 10 -3 15 -6 6 -4 28 -12 50
-19 22 -7 54 -18 70 -25 66 -29 233 -83 239 -78 3 4 6 1 6 -6 0 -7 4 -10 9 -6
5 3 12 1 15 -4 3 -5 22 -12 42 -16 20 -3 44 -10 53 -15 14 -8 79 -28 321 -102
19 -6 42 -13 50 -16 15 -5 28 -9 53 -15 30 -8 195 -59 217 -68 14 -5 34 -10
45 -12 11 -1 25 -5 30 -8 10 -6 68 -22 73 -20 1 1 18 -5 37 -13 19 -8 35 -13
35 -11 0 2 16 -3 35 -11 19 -8 35 -12 35 -9 0 2 20 -4 45 -15 25 -11 45 -18
45 -16 0 3 48 -11 107 -29 59 -19 110 -32 115 -29 4 3 8 1 8 -3 0 -8 20 -15
105 -39 132 -37 565 -199 633 -236 18 -10 37 -18 43 -18 14 0 324 -155 358
-179 16 -12 32 -21 36 -21 12 0 169 -104 265 -174 127 -94 309 -277 389 -390
27 -38 30 -46 13 -37 -11 6 -26 17 -34 24 -7 7 -35 27 -63 44 -27 18 -54 36
-60 40 -35 28 -209 124 -315 175 -165 79 -173 83 -255 113 -38 14 -79 30 -90
35 -32 14 -293 95 -340 106 -5 1 -36 9 -67 19 -32 9 -62 14 -67 11 -5 -4 -11
-2 -13 4 -1 5 -19 11 -38 14 -19 3 -81 16 -137 30 -56 14 -112 27 -125 30 -13
2 -30 7 -38 10 -8 3 -28 7 -45 10 -36 6 -254 56 -275 64 -8 2 -24 6 -35 7 -11
2 -47 10 -80 19 -33 8 -71 17 -85 20 -14 3 -36 8 -50 11 -14 3 -36 8 -50 11
-14 3 -59 14 -100 24 -41 10 -86 21 -100 24 -14 3 -41 9 -60 14 -19 5 -38 9
-42 10 -5 1 -9 2 -10 3 -2 0 -14 2 -27 5 -13 2 -58 13 -100 24 -42 10 -87 21
-101 24 -14 3 -81 19 -150 36 -69 17 -133 33 -144 35 -10 2 -57 14 -105 26
-47 12 -93 23 -101 24 -9 0 -20 4 -26 7 -6 4 -21 9 -35 12 -60 13 -120 29
-194 51 -44 14 -89 26 -100 28 -11 2 -27 7 -35 10 -22 8 -189 59 -195 58 -4 0
-71 24 -360 125 -44 16 -83 32 -86 37 -3 5 -9 8 -13 7 -20 -6 -312 133 -430
204 -32 20 -62 36 -67 36 -5 0 -9 5 -9 10 0 6 -5 10 -10 10 -17 0 -330 217
-360 250 -3 3 -27 23 -55 45 -27 21 -84 69 -125 105 -41 36 -90 79 -109 95
-19 17 -43 38 -53 48 -10 9 -20 17 -23 17 -3 0 -20 13 -38 29 -95 86 -105 91
-146 60 -33 -24 -42 -47 -35 -87 8 -42 44 -164 59 -197 8 -16 11 -33 9 -37 -3
-4 0 -8 7 -8 7 0 10 -3 6 -6 -5 -6 5 -41 33 -109 4 -11 13 -36 20 -55 17 -49
30 -80 48 -115 9 -16 15 -31 14 -33 -1 -1 5 -18 13 -38 8 -20 15 -38 15 -40 0
-2 27 -60 60 -130 33 -69 60 -130 60 -134 0 -5 3 -10 8 -12 4 -1 18 -25 32
-53 13 -27 55 -101 92 -164 38 -63 68 -118 68 -122 0 -4 4 -9 8 -11 5 -1 33
-40 62 -85 29 -46 57 -83 61 -83 5 0 9 -5 9 -10 0 -10 86 -126 119 -162 9 -9
26 -29 38 -45 12 -16 34 -42 47 -56 14 -15 24 -27 22 -27 -2 0 49 -53 114
-117 127 -128 225 -218 319 -291 19 -15 40 -33 47 -40 7 -6 17 -12 23 -12 6 0
11 -3 11 -7 0 -5 17 -19 38 -33 45 -30 49 -33 88 -65 18 -14 35 -25 38 -25 3
0 28 -15 54 -33 63 -42 74 -49 162 -99 41 -24 84 -48 95 -54 47 -28 151 -77
157 -76 5 1 8 -2 8 -8 0 -5 5 -10 11 -10 5 0 38 -13 72 -29 66 -31 95 -42 101
-38 1 1 11 -5 20 -13 10 -8 23 -15 30 -17 6 -1 62 -22 124 -48 62 -25 118 -45
125 -45 6 0 24 -6 38 -14 14 -7 37 -16 52 -20 14 -3 36 -10 49 -15 13 -5 28
-10 33 -11 6 -2 35 -11 65 -22 30 -11 62 -21 70 -23 8 -2 94 -26 190 -54 96
-27 186 -52 200 -55 14 -3 88 -21 164 -40 77 -20 151 -38 165 -40 14 -2 26 -5
26 -6 0 -2 32 -9 60 -14 11 -2 38 -8 60 -14 22 -6 52 -13 67 -16 15 -2 31 -7
36 -10 5 -3 24 -8 43 -11 19 -3 52 -11 74 -16 22 -6 47 -13 55 -15 8 -2 85
-22 170 -44 85 -23 164 -43 175 -46 27 -7 38 -10 55 -17 29 -10 245 -68 274
-72 16 -3 35 -10 42 -16 8 -6 14 -9 14 -5 0 10 140 -43 240 -92 200 -96 366
-227 493 -388 l20 -26 -23 7 c-12 4 -38 9 -56 10 -18 2 -42 6 -53 10 -11 3
-28 8 -38 10 -10 2 -61 23 -113 47 -90 42 -181 81 -225 98 -11 4 -44 17 -74
29 -29 12 -61 21 -70 21 -10 0 -21 4 -26 9 -6 5 -35 16 -65 25 -30 8 -80 22
-110 31 -30 9 -64 18 -75 20 -27 5 -52 11 -100 24 -22 6 -58 13 -80 17 -22 3
-43 8 -47 10 -3 2 -27 7 -53 10 -26 3 -57 9 -70 14 -13 5 -25 6 -28 3 -3 -3
-21 0 -39 5 -18 6 -57 13 -87 16 -29 4 -84 11 -122 16 -38 6 -72 9 -77 9 -4
-1 -9 0 -12 1 -11 4 -39 8 -105 14 -39 4 -81 9 -95 10 -14 2 -50 7 -80 11 -30
3 -68 9 -85 11 -16 3 -48 7 -70 9 -22 2 -53 7 -70 10 -16 3 -48 7 -70 9 -47 5
-118 15 -160 22 -16 3 -50 7 -75 9 -45 5 -82 10 -130 20 -14 2 -45 6 -70 9
-25 2 -52 7 -60 10 -8 3 -30 8 -47 11 -81 13 -100 17 -138 27 -22 5 -49 12
-60 14 -45 9 -238 69 -270 85 -12 6 -27 11 -35 13 -33 7 -68 22 -210 90 -210
101 -369 205 -528 344 -15 13 -45 35 -67 49 -22 14 -42 29 -45 32 -3 3 -19 13
-36 22 -70 37 -118 -32 -89 -129 8 -26 15 -51 16 -57 1 -11 25 -76 39 -110 5
-11 23 -53 39 -92 47 -114 116 -242 189 -351 23 -35 42 -65 42 -68 0 -2 6 -12
14 -21 8 -10 48 -61 89 -114 99 -128 113 -144 247 -279 93 -95 233 -220 285
-258 6 -4 24 -18 41 -32 17 -14 44 -34 59 -45 15 -11 42 -30 58 -42 17 -13 36
-23 43 -23 7 0 14 -4 16 -8 4 -10 94 -72 104 -72 4 0 15 -6 23 -14 57 -50 505
-266 646 -311 38 -13 142 -50 175 -62 8 -4 17 -7 20 -7 16 -4 158 -49 175 -56
11 -5 38 -14 60 -20 22 -6 47 -14 55 -17 8 -3 20 -7 25 -8 45 -10 305 -105
362 -132 40 -18 76 -33 79 -33 4 1 10 -2 13 -7 3 -4 26 -21 50 -37 82 -53 142
-130 167 -216 20 -68 -9 -196 -62 -274 -41 -61 -42 -75 -8 -107 23 -22 34 -24
112 -24 48 0 103 3 122 7 31 6 56 11 125 23 20 3 212 43 250 51 11 3 40 9 65
14 25 6 54 12 65 15 11 3 29 7 40 9 11 2 40 9 65 15 25 7 54 14 65 16 45 10
176 46 290 79 6 2 24 6 40 11 17 4 70 21 119 37 49 17 94 31 100 33 6 1 18 5
26 8 8 3 62 24 120 46 58 21 131 51 164 65 32 14 65 26 72 26 8 0 14 5 14 12
0 6 3 9 6 5 5 -5 262 119 274 132 3 3 31 19 63 36 31 16 57 33 57 36 0 4 10
11 23 14 12 4 36 18 54 31 17 13 35 24 38 24 8 0 77 51 86 63 3 5 10 9 15 10
5 0 14 5 19 9 44 37 129 98 136 98 5 0 9 7 9 15 0 8 4 14 9 13 11 -4 119 92
225 198 116 116 198 209 286 329 25 33 47 62 50 65 15 15 133 202 149 237 5
11 15 24 21 28 5 3 8 11 5 16 -4 5 -2 9 4 9 5 0 15 16 21 35 6 19 16 35 21 35
5 0 9 4 9 10 0 5 20 51 45 102 44 92 128 300 148 368 6 19 11 37 12 40 1 3 5
12 8 20 5 13 40 131 52 180 24 96 52 236 48 246 -2 7 0 15 6 19 6 3 11 25 11
49 0 23 5 47 12 54 9 9 9 12 -1 12 -7 0 -9 5 -5 11 30 49 22 527 -11 681 -4
15 -8 40 -10 57 -5 37 -23 108 -36 142 -6 15 -12 37 -14 50 -7 55 -97 275
-157 387 -29 54 -133 225 -150 247 -5 6 -32 42 -61 80 -28 39 -56 75 -62 81
-5 6 -38 42 -71 80 -81 91 -162 172 -225 225 -28 24 -63 54 -78 67 -14 13 -42
35 -61 50 -19 15 -37 29 -40 32 -3 3 -12 10 -21 15 -9 6 -43 29 -75 51 -197
138 -501 294 -790 404 -60 23 -120 46 -134 52 -14 6 -34 14 -45 18 -11 5 -36
14 -55 21 -19 8 -37 14 -40 15 -3 0 -12 3 -20 6 -8 4 -28 11 -45 16 -16 6 -68
25 -115 42 -47 18 -89 33 -95 34 -5 1 -14 4 -20 7 -5 4 -35 14 -65 24 -30 10
-61 22 -67 28 -7 5 -13 7 -13 4 0 -3 -37 8 -82 25 -46 16 -87 31 -93 33 -5 1
-17 4 -25 7 -8 3 -37 14 -65 24 -27 10 -54 19 -60 20 -5 1 -71 23 -145 49 -74
26 -142 48 -150 50 -8 2 -16 4 -17 5 -2 2 -6 3 -10 5 -5 1 -15 4 -23 8 -20 8
-311 106 -330 112 -27 7 -404 136 -425 145 -11 4 -29 10 -40 13 -11 3 -85 28
-165 56 -80 29 -152 54 -160 56 -15 4 -158 56 -220 80 -19 7 -80 30 -135 50
-100 37 -194 73 -250 96 -16 7 -34 13 -40 15 -38 9 -516 211 -660 279 -49 23
-100 45 -112 49 -13 4 -23 12 -23 17 0 6 -5 7 -11 3 -6 -3 -14 -3 -18 2 -3 5
-58 34 -121 64 -63 30 -117 57 -120 60 -3 3 -45 26 -95 51 -130 68 -159 83
-165 89 -3 3 -16 11 -30 18 -14 7 -34 18 -45 25 -11 7 -38 23 -60 35 -22 12
-53 31 -70 42 -16 11 -37 23 -45 27 -33 16 -235 147 -238 155 -2 4 -8 8 -13 8
-9 0 -68 38 -79 51 -3 3 -20 14 -37 24 -18 11 -33 23 -33 27 0 4 -5 8 -11 8
-6 0 -30 16 -53 35 -24 19 -46 35 -50 35 -3 0 -15 8 -25 18 -11 9 -26 22 -33
27 -205 156 -327 263 -508 445 -134 134 -251 263 -259 284 -2 6 -10 16 -17 21
-7 6 -40 46 -73 90 -33 44 -67 88 -75 98 -9 9 -16 20 -16 23 0 7 -59 93 -77
112 -7 7 -13 19 -13 27 0 7 -4 15 -8 17 -7 2 -82 126 -124 202 -50 92 -127
256 -170 361 -36 88 -41 99 -43 110 -2 6 -13 37 -25 70 -21 60 -25 71 -30 90
-1 6 -7 21 -12 35 -9 23 -35 113 -43 150 -2 8 -4 15 -5 15 -1 0 -4 11 -6 25
-3 14 -9 27 -14 28 -6 2 -10 8 -10 14 0 13 -60 72 -80 80 -12 4 -22 -15 -45
-86z"/>
</g>
</svg>
