<svg viewBox="0 0 40 40" fill="none" xmlns="http://www.w3.org/2000/svg">
<path d="M26.25 15.5C26.25 13.7761 25.5652 12.1228 24.3462 10.9038C23.1272 9.68482 21.4739 9 19.75 9C18.0261 9 16.3728 9.68482 15.1538 10.9038C13.9348 12.1228 13.25 13.7761 13.25 15.5C13.25 23.0833 10 25.25 10 25.25H29.5C29.5 25.25 26.25 23.0833 26.25 15.5Z" stroke="white" stroke-width="1.7" stroke-linecap="round" stroke-linejoin="round"/>
<path d="M21.6243 29.5833C21.4338 29.9116 21.1605 30.1842 20.8316 30.3736C20.5026 30.5631 20.1297 30.6628 19.7501 30.6628C19.3706 30.6628 18.9976 30.5631 18.6687 30.3736C18.3398 30.1842 18.0664 29.9116 17.876 29.5833" stroke="white" stroke-width="1.7" stroke-linecap="round" stroke-linejoin="round"/>
</svg>
