<svg viewBox="0 0 30 30" fill="none" xmlns="http://www.w3.org/2000/svg">
<g clip-path="url(#clip0_2221_1603)">
<path d="M12.63 11.16H7.17C5.97 11.16 5 10.19 5 8.99V7.17C5 5.97 5.97 5 7.17 5H12.63C13.83 5 14.8 5.97 14.8 7.17V8.99C14.8 10.19 13.83 11.16 12.63 11.16ZM7.17 6.6C6.86 6.6 6.6 6.86 6.6 7.17V8.99C6.6 9.3 6.86 9.56 7.17 9.56H12.63C12.94 9.56 13.2 9.3 13.2 8.99V7.17C13.2 6.86 12.94 6.6 12.63 6.6H7.17Z"/>
<path d="M12.3 25H7.3C6.03 25 5 23.97 5 22.7V14.7C5 13.43 6.03 12.4 7.3 12.4H12.3C13.57 12.4 14.6 13.43 14.6 14.7V22.7C14.6 23.97 13.57 25 12.3 25ZM7.3 14C6.91 14 6.6 14.31 6.6 14.7V22.7C6.6 23.09 6.91 23.4 7.3 23.4H12.3C12.69 23.4 13 23.09 13 22.7V14.7C13 14.31 12.69 14 12.3 14H7.3Z"/>
<path d="M23.5 5H17.5C16.67 5 16 5.67 16 6.5V23.5C16 24.33 16.67 25 17.5 25H23.5C24.33 25 25 24.33 25 23.5V6.5C25 5.67 24.33 5 23.5 5ZM23.4 22.89C23.4 23.17 23.18 23.39 22.9 23.39H18.1C17.82 23.39 17.6 23.17 17.6 22.89V7.1C17.6 6.82 17.82 6.6 18.1 6.6H22.9C23.18 6.6 23.4 6.82 23.4 7.1V22.89Z"/>
</g>
<defs>
<clipPath id="clip0_2221_1603">
<rect width="20" height="20" transform="translate(5 5)"/>
</clipPath>
</defs>
</svg>
