<svg viewBox="0 0 20 20" fill="none" xmlns="http://www.w3.org/2000/svg">
<g clip-path="url(#clip0_1025_1109)">
<path d="M5.93988 17.15C5.66988 17.15 5.38988 17.03 5.20988 16.8C4.87988 16.4 4.94988 15.8 5.34988 15.48L11.1199 10.82C11.5199 10.5 11.5299 9.89004 11.1299 9.56004L5.32988 4.66004C4.93988 4.32004 4.88988 3.73004 5.21988 3.33004C5.55988 2.94004 6.14988 2.89004 6.54988 3.22004L13.9799 9.49004C14.1899 9.67003 14.3199 9.94003 14.3099 10.22C14.2999 10.5 14.1799 10.77 13.9599 10.94L6.52988 16.94C6.35988 17.08 6.14988 17.15 5.93988 17.15Z" />
</g>
<defs>
<clipPath id="clip0_1025_1109">
<rect width="9.31" height="14.15"  transform="translate(5 3)"/>
</clipPath>
</defs>
</svg>
