<svg viewBox="0 0 30 30" fill="none" xmlns="http://www.w3.org/2000/svg">
<path d="M15 6.6C15.05 6.6 15.13 6.61 15.22 6.67L22.79 12.09C23.17 12.36 23.4 12.82 23.4 13.3V20.91C23.4 22.28 22.32 23.4 21 23.4H8.79C7.58 23.4 6.6 22.38 6.6 21.12V13.3C6.6 12.81 6.83 12.36 7.21 12.09L14.78 6.67C14.86 6.61 14.94 6.6 15 6.6ZM15 5C14.6 5 14.2 5.12 13.85 5.37L6.28 10.79C5.48 11.36 5 12.3 5 13.3V21.12C5 23.26 6.7 25 8.79 25H21C23.21 25 25 23.17 25 20.91V13.3C25 12.3 24.52 11.36 23.72 10.79L16.15 5.37C15.81 5.12 15.4 5 15 5Z" fill="white"/>
<path d="M18.0002 21.8H12.0002C11.5602 21.8 11.2002 21.44 11.2002 21C11.2002 20.56 11.5602 20.2 12.0002 20.2H18.0002C18.4402 20.2 18.8002 20.56 18.8002 21C18.8002 21.44 18.4402 21.8 18.0002 21.8Z" fill="white"/>
</svg>
