<svg viewBox="0 0 30 30" fill="none" xmlns="http://www.w3.org/2000/svg">
<g clip-path="url(#clip0_1518_192)">
<path d="M20.11 25.5102H9.69C8.2 25.5102 7 24.3002 7 22.8202V15.4102C7 13.9202 8.21 12.7202 9.69 12.7202H20.1C21.59 12.7202 22.79 13.9302 22.79 15.4102V22.8202C22.79 24.3102 21.58 25.5102 20.1 25.5102H20.11ZM9.69 14.5102C9.2 14.5102 8.8 14.9102 8.8 15.4002V22.8102C8.8 23.3002 9.2 23.7002 9.69 23.7002H20.1C20.59 23.7002 20.99 23.3002 20.99 22.8102V15.4002C20.99 14.9102 20.59 14.5102 20.1 14.5102H9.69Z" fill="white"/>
<path d="M14.9 21.3C14.4 21.3 14 20.9 14 20.4V17.4C14 16.9 14.4 16.5 14.9 16.5C15.4 16.5 15.8 16.9 15.8 17.4V20.4C15.8 20.9 15.4 21.3 14.9 21.3Z" fill="white"/>
<path d="M18.9 14.3C18.4 14.3 18 13.9 18 13.4V10.4C18 8.42 16.61 6.8 14.9 6.8C13.19 6.8 11.8 8.42 11.8 10.4V13.4C11.8 13.9 11.4 14.3 10.9 14.3C10.4 14.3 10 13.9 10 13.4V10.4C10 7.42 12.2 5 14.9 5C17.6 5 19.8 7.42 19.8 10.4V13.4C19.8 13.9 19.4 14.3 18.9 14.3Z" fill="white"/>
</g>
<defs>
<clipPath id="clip0_1518_192">
<rect width="15.8" height="20.51" fill="white" transform="translate(7 5)"/>
</clipPath>
</defs>
</svg>
