<svg viewBox="0 0 30 30" fill="none" xmlns="http://www.w3.org/2000/svg">
<path d="M24.5693 23.431L19.4193 18.281C19.2893 18.151 19.2893 17.961 19.3893 17.821C20.6293 16.191 21.2493 14.061 20.9193 11.791C20.3993 8.26098 17.4693 5.44098 13.9193 5.05098C8.77929 4.48098 4.48929 8.77098 5.04929 13.901C5.43929 17.451 8.25929 20.381 11.7893 20.901C14.0593 21.231 16.1793 20.611 17.8193 19.371C17.9593 19.261 18.1593 19.271 18.2793 19.401L23.4293 24.551C23.5893 24.711 23.7893 24.781 23.9993 24.781C24.2093 24.781 24.4093 24.701 24.5693 24.551C24.8793 24.241 24.8793 23.741 24.5693 23.431ZM6.76929 14.461C5.72929 9.80098 9.79929 5.72098 14.4693 6.76098C16.8193 7.28098 18.7193 9.18098 19.2393 11.531C20.2793 16.191 16.1993 20.271 11.5393 19.231C9.18929 18.711 7.28929 16.811 6.76929 14.461Z"/>
</svg>
