<svg viewBox="0 0 27 24" fill="none" xmlns="http://www.w3.org/2000/svg">
<path d="M19.2923 23.4456H19.1965C13.3783 23.4456 7.56002 23.4487 1.74177 23.4394C1.1025 23.4394 0.565149 23.1676 0.22853 22.5963C0.0926473 22.3678 0.0154412 22.1084 0.012353 21.8397C0.00617649 20.8422 0.00617649 19.8447 0.00308824 18.8472C0.00308824 18.631 -0.00308824 18.4148 0.00308824 18.1986C0.0154412 17.791 0.216177 17.5995 0.623825 17.5903C0.920297 17.5841 1.20442 17.5408 1.48236 17.4266C2.3378 17.0714 2.81648 16.4198 2.94618 15.5181C3.03266 14.9158 2.8628 14.363 2.50457 13.8689C2.18648 13.4335 1.76956 13.1278 1.24765 12.9919C1.03765 12.9363 0.815296 12.9301 0.596031 12.9208C0.284118 12.9054 0.0833826 12.7633 0.0185295 12.4761C0.00308824 12.402 0 12.3217 0 12.2476C0 11.1142 0 9.98083 0 8.84744C0 8.52936 0.0586766 8.22362 0.210001 7.94568C0.534266 7.35891 1.05927 7.09332 1.71706 7.06244C1.74795 7.06244 1.77883 7.06244 1.80971 7.06244C7.59399 7.06244 13.3783 7.06244 19.1626 7.06244H19.2892V23.4456H19.2923ZM10.8058 15.8516C10.8274 15.8516 10.849 15.8516 10.8706 15.8516C12.1244 15.8516 13.3783 15.8516 14.6321 15.8516C15.1077 15.8516 15.3764 15.3544 15.1386 14.9405C15.012 14.7213 14.8112 14.6595 14.5734 14.6595C12.5969 14.6595 10.6205 14.6595 8.644 14.6595C8.0912 14.6595 7.5384 14.6595 6.98561 14.6595C6.77561 14.6595 6.60884 14.746 6.49767 14.9282C6.42046 15.0548 6.41428 15.1969 6.42355 15.3389C6.44208 15.5891 6.60575 15.7806 6.84973 15.83C6.9362 15.8485 7.02884 15.8516 7.11531 15.8516C8.34444 15.8516 9.57356 15.8516 10.8027 15.8516H10.8058ZM10.815 18.7761C12.0781 18.7761 13.3412 18.77 14.6043 18.7761C14.9811 18.7761 15.2899 18.5044 15.1972 18.0226C15.1417 17.7416 14.9286 17.5841 14.6259 17.5841C12.1368 17.5841 9.64768 17.5841 7.15855 17.5841C7.09679 17.5841 7.03502 17.5841 6.97326 17.5841C6.82193 17.5903 6.67987 17.6335 6.57487 17.7509C6.38649 17.9639 6.37722 18.2079 6.47914 18.4519C6.57487 18.6835 6.77252 18.77 7.01649 18.77C8.28267 18.77 9.54885 18.77 10.815 18.77V18.7761ZM8.75826 12.9177C9.34194 12.9177 9.92562 12.9177 10.5093 12.9177C10.8459 12.9177 11.0559 12.7386 11.1084 12.4082C11.1702 12.0191 10.9262 11.7319 10.534 11.7319C9.35738 11.7319 8.18076 11.7319 7.00414 11.7319C6.9362 11.7319 6.86826 11.7411 6.8034 11.7597C6.53472 11.8369 6.38649 12.1055 6.42972 12.4329C6.46678 12.717 6.68914 12.9177 6.97017 12.9177C7.5662 12.9177 8.16223 12.9177 8.75826 12.9177Z" fill="white"/>
<path d="M20.5078 7.06244H20.6159C22.126 7.06244 23.6362 7.05626 25.1463 7.06244C25.8999 7.06553 26.4496 7.40832 26.7646 8.10009C26.8696 8.33171 26.9128 8.57877 26.9128 8.82891C26.9128 9.97156 26.9128 11.1142 26.9128 12.2569C26.9128 12.6182 26.6441 12.893 26.2828 12.9147C25.9184 12.9363 25.5694 12.9919 25.2421 13.1741C24.5472 13.5601 23.9172 14.4403 24.0315 15.4841C24.1087 16.1728 24.4299 16.7256 24.9703 17.1425C25.2946 17.3926 25.6806 17.5223 26.0913 17.5656C26.2365 17.581 26.3878 17.5934 26.5268 17.6366C26.743 17.7045 26.8603 17.8713 26.8943 18.0936C26.9066 18.1678 26.9097 18.2419 26.9097 18.316C26.9097 19.4247 26.9128 20.5334 26.9097 21.642C26.9097 22.2134 26.7028 22.7013 26.255 23.0657C25.9987 23.2726 25.693 23.3838 25.3625 23.4209C25.2421 23.4332 25.1216 23.4394 25.0012 23.4394C23.5405 23.4394 22.0797 23.4394 20.619 23.4394C20.5819 23.4394 20.5449 23.4394 20.4985 23.4394V7.06244H20.5078Z" fill="white"/>
<path d="M6.3335 5.79617C6.4107 5.76837 6.48791 5.74058 6.56511 5.71587C6.98512 5.5769 7.40821 5.44102 7.82821 5.29587C8.74542 4.97778 9.65954 4.65352 10.5767 4.33852C11.4878 4.02351 12.4019 3.71469 13.3129 3.39969C13.8565 3.21131 14.4 3.01675 14.9435 2.82836C15.7835 2.54116 16.6235 2.26013 17.4635 1.96983C18.041 1.77218 18.6154 1.56527 19.1929 1.36762C19.8229 1.15145 20.453 0.938358 21.083 0.722181C21.7037 0.509092 22.3244 0.292915 22.9421 0.0767382C23.6493 -0.170321 24.7116 0.181738 25.0483 1.09586C25.2706 1.69807 25.4837 2.30027 25.6999 2.90557C25.8821 3.41513 26.0643 3.92778 26.2434 4.44043C26.265 4.50528 26.2805 4.57013 26.2897 4.63807C26.3299 4.95616 26.194 5.17543 25.9037 5.31131C25.635 5.43484 25.3633 5.55837 25.1193 5.71896C24.9927 5.80234 24.8753 5.8147 24.7425 5.8147C21.1355 5.8147 17.5284 5.8147 13.9213 5.8147C11.5897 5.8147 9.25806 5.8147 6.92644 5.8147C6.73188 5.8147 6.53732 5.8147 6.34276 5.8147C6.34276 5.80852 6.33967 5.80543 6.33658 5.79925L6.3335 5.79617Z" fill="white"/>
</svg>
