<svg  viewBox="0 0 30 30" fill="none" xmlns="http://www.w3.org/2000/svg">
<g clip-path="url(#clip0_2221_1571)">
<path d="M15.1299 5.6C17.2799 5.6 19.0299 7.35 19.0299 9.5C19.0299 11.65 17.2799 13.4 15.1299 13.4C12.9799 13.4 11.2299 11.65 11.2299 9.5C11.2299 7.35 12.9799 5.6 15.1299 5.6ZM15.1299 4C12.0899 4 9.62988 6.46 9.62988 9.5C9.62988 12.54 12.0899 15 15.1299 15C18.1699 15 20.6299 12.54 20.6299 9.5C20.6299 6.46 18.1699 4 15.1299 4Z" fill="white"/>
<path d="M19.5101 17C20.6201 17.99 21.3701 19.3 21.6201 20.72C21.8001 21.71 21.4401 22.73 20.6701 23.45C20.1201 23.96 19.3501 24.26 18.5601 24.26H11.6901C10.9001 24.26 10.1301 23.96 9.58011 23.45C8.81011 22.73 8.46011 21.71 8.63011 20.72C8.88011 19.3 9.63011 17.99 10.7401 17C11.9601 17.97 13.4901 18.5 15.1101 18.5C16.7301 18.5 18.2601 17.96 19.4801 17M19.3501 14.91H19.3301C18.3601 16.11 16.8401 16.9 15.1101 16.9C13.3801 16.9 11.8601 16.11 10.8901 14.91H10.8701C8.85011 16.18 7.47011 18.19 7.07011 20.45C6.80011 21.98 7.33011 23.53 8.50011 24.63C9.35011 25.43 10.5001 25.87 11.7001 25.87H18.5701C19.7701 25.87 20.9201 25.42 21.7701 24.63C22.9401 23.54 23.4701 21.98 23.2001 20.45C22.8001 18.19 21.4201 16.19 19.3901 14.92L19.3501 14.91Z" fill="white"/>
</g>
<defs>
<clipPath id="clip0_2221_1571">
<rect width="16.26" height="21.87" fill="white" transform="translate(7 4)"/>
</clipPath>
</defs>
</svg>
