<svg width="20" height="20" viewBox="0 0 20 20" fill="none" xmlns="http://www.w3.org/2000/svg">
<g clip-path="url(#clip0_1106_1110)">
<path d="M19.8333 9.56521C19.1237 7.85722 18.0541 6.32233 16.6975 5.06521L19.2142 2.54938L17.4492 0.782715L14.6375 3.59521C13.2119 2.8314 11.6173 2.43797 10 2.45105C2.91667 2.45105 0.2725 9.27438 0.166667 9.56521L0 10.0002L0.166667 10.4352C0.876275 12.1432 1.94586 13.6781 3.3025 14.9352L0.7825 17.4494L2.55083 19.2177L5.3625 16.4052C6.78809 17.169 8.38273 17.5625 10 17.5494C17.0833 17.5494 19.7275 10.726 19.8333 10.4352L20 10.0002L19.8333 9.56521ZM2.67667 10.0002C3.30417 8.70438 5.51583 4.93021 10 4.93021C10.9488 4.92633 11.8891 5.10778 12.7683 5.46438L11.3017 6.93105C10.6902 6.67149 10.0152 6.60053 9.36316 6.72726C8.71112 6.854 8.11182 7.17265 7.64213 7.64234C7.17244 8.11203 6.85378 8.71134 6.72705 9.36338C6.60031 10.0154 6.67128 10.6905 6.93083 11.3019L5.05417 13.1777C4.06213 12.2836 3.25447 11.2042 2.67667 10.0002ZM10 15.0702C9.05124 15.0741 8.11086 14.8927 7.23167 14.536L8.69833 13.0694C9.30976 13.3289 9.9848 13.3999 10.6368 13.2732C11.2889 13.1464 11.8882 12.8278 12.3579 12.3581C12.8276 11.8884 13.1462 11.2891 13.273 10.6371C13.3997 9.98501 13.3287 9.30998 13.0692 8.69855L14.9458 6.82271C15.9381 7.71661 16.7457 8.79607 17.3233 10.0002C16.6958 11.296 14.4842 15.0702 10 15.0702Z" fill="#A2A2A8"/>
</g>
<defs>
<clipPath id="clip0_1106_1110">
<rect width="20" height="20" fill="white"/>
</clipPath>
</defs>
</svg>
