<svg width="21" height="20" viewBox="0 0 21 20" fill="none" xmlns="http://www.w3.org/2000/svg">
<g clip-path="url(#clip0_1546_120)">
<path d="M18.3502 20H12.8902C11.6902 20 10.7202 19.03 10.7202 17.83V16.01C10.7202 14.81 11.6902 13.84 12.8902 13.84H18.3502C19.5502 13.84 20.5202 14.81 20.5202 16.01V17.83C20.5202 19.03 19.5502 20 18.3502 20ZM12.8902 15.44C12.5802 15.44 12.3202 15.7 12.3202 16.01V17.83C12.3202 18.14 12.5802 18.4 12.8902 18.4H18.3502C18.6602 18.4 18.9202 18.14 18.9202 17.83V16.01C18.9202 15.7 18.6602 15.44 18.3502 15.44H12.8902Z" fill="white"/>
<path d="M7.63 6.16H2.17C0.97 6.16 0 5.19 0 3.99V2.17C0 0.97 0.97 0 2.17 0H7.63C8.83 0 9.8 0.97 9.8 2.17V3.99C9.8 5.19 8.83 6.16 7.63 6.16ZM2.17 1.6C1.86 1.6 1.6 1.86 1.6 2.17V3.99C1.6 4.3 1.86 4.56 2.17 4.56H7.63C7.94 4.56 8.2 4.3 8.2 3.99V2.17C8.2 1.86 7.94 1.6 7.63 1.6H2.17Z" fill="white"/>
<path d="M7.3 20H2.3C1.03 20 0 18.97 0 17.7V9.69999C0 8.42999 1.03 7.39999 2.3 7.39999H7.3C8.57 7.39999 9.6 8.42999 9.6 9.69999V17.7C9.6 18.97 8.57 20 7.3 20ZM2.3 8.99999C1.91 8.99999 1.6 9.30999 1.6 9.69999V17.7C1.6 18.09 1.91 18.4 2.3 18.4H7.3C7.69 18.4 8 18.09 8 17.7V9.69999C8 9.30999 7.69 8.99999 7.3 8.99999H2.3Z" fill="white"/>
<path d="M18.2102 12.6H13.2102C11.9402 12.6 10.9102 11.57 10.9102 10.3V2.3C10.9102 1.03 11.9402 0 13.2102 0H18.2102C19.4802 0 20.5102 1.03 20.5102 2.3V10.3C20.5102 11.57 19.4802 12.6 18.2102 12.6ZM13.2202 1.6C12.8302 1.6 12.5202 1.91 12.5202 2.3V10.3C12.5202 10.69 12.8302 11 13.2202 11H18.2202C18.6102 11 18.9202 10.69 18.9202 10.3V2.3C18.9202 1.91 18.6102 1.6 18.2202 1.6H13.2202Z" fill="white"/>
</g>
<defs>
<clipPath id="clip0_1546_120">
<rect width="20.52" height="20" fill="white"/>
</clipPath>
</defs>
</svg>
