<svg width="20" height="20" viewBox="0 0 20 20" fill="none" xmlns="http://www.w3.org/2000/svg">
<path d="M10 1.6C10.05 1.6 10.13 1.61 10.22 1.67L17.79 7.09C18.17 7.36 18.4 7.82 18.4 8.3V15.91C18.4 17.28 17.32 18.4 16 18.4H3.79C2.58 18.4 1.6 17.38 1.6 16.12V8.3C1.6 7.81 1.83 7.36 2.21 7.09L9.78 1.67C9.86 1.61 9.94 1.6 10 1.6ZM10 0C9.6 0 9.2 0.12 8.85 0.37L1.28 5.79C0.479999 6.36 0 7.3 0 8.3V16.12C0 18.26 1.7 20 3.79 20H16C18.21 20 20 18.17 20 15.91V8.3C20 7.3 19.52 6.36 18.72 5.79L11.15 0.37C10.81 0.12 10.4 0 10 0Z" fill="white"/>
<path d="M13.0002 16.8H7.0002C6.5602 16.8 6.2002 16.44 6.2002 16C6.2002 15.56 6.5602 15.2 7.0002 15.2H13.0002C13.4402 15.2 13.8002 15.56 13.8002 16C13.8002 16.44 13.4402 16.8 13.0002 16.8Z" fill="white"/>
</svg>
