<svg width="16" height="21" viewBox="0 0 16 21" fill="none" xmlns="http://www.w3.org/2000/svg">
<g clip-path="url(#clip0_1546_1521)">
<path d="M13.11 20.5102H2.69C1.2 20.5102 0 19.3002 0 17.8202V10.4102C0 8.92021 1.21 7.72021 2.69 7.72021H13.1C14.59 7.72021 15.79 8.93021 15.79 10.4102V17.8202C15.79 19.3102 14.58 20.5102 13.1 20.5102H13.11ZM2.69 9.51022C2.2 9.51022 1.8 9.91021 1.8 10.4002V17.8102C1.8 18.3002 2.2 18.7002 2.69 18.7002H13.1C13.59 18.7002 13.99 18.3002 13.99 17.8102V10.4002C13.99 9.91021 13.59 9.51022 13.1 9.51022H2.69Z" fill="white"/>
<path d="M7.9 16.3C7.4 16.3 7 15.9 7 15.4V12.4C7 11.9 7.4 11.5 7.9 11.5C8.4 11.5 8.8 11.9 8.8 12.4V15.4C8.8 15.9 8.4 16.3 7.9 16.3Z" fill="white"/>
<path d="M11.9 9.3C11.4 9.3 11 8.9 11 8.4V5.4C11 3.42 9.61 1.8 7.9 1.8C6.19 1.8 4.8 3.42 4.8 5.4V8.4C4.8 8.9 4.4 9.3 3.9 9.3C3.4 9.3 3 8.9 3 8.4V5.4C3 2.42 5.2 0 7.9 0C10.6 0 12.8 2.42 12.8 5.4V8.4C12.8 8.9 12.4 9.3 11.9 9.3Z" fill="white"/>
</g>
<defs>
<clipPath id="clip0_1546_1521">
<rect width="15.8" height="20.51" fill="white"/>
</clipPath>
</defs>
</svg>
