<svg width="17" height="22" viewBox="0 0 17 22" fill="none" xmlns="http://www.w3.org/2000/svg">
<g clip-path="url(#clip0_1546_103)">
<path d="M8.12988 1.6C10.2799 1.6 12.0299 3.35 12.0299 5.5C12.0299 7.65 10.2799 9.4 8.12988 9.4C5.97988 9.4 4.22988 7.65 4.22988 5.5C4.22988 3.35 5.97988 1.6 8.12988 1.6ZM8.12988 0C5.08988 0 2.62988 2.46 2.62988 5.5C2.62988 8.54 5.08988 11 8.12988 11C11.1699 11 13.6299 8.54 13.6299 5.5C13.6299 2.46 11.1699 0 8.12988 0Z" fill="white"/>
<path d="M12.5101 13C13.6201 13.99 14.3701 15.3 14.6201 16.72C14.8001 17.71 14.4401 18.73 13.6701 19.45C13.1201 19.96 12.3501 20.26 11.5601 20.26H4.69011C3.90011 20.26 3.13011 19.96 2.58011 19.45C1.81011 18.73 1.46011 17.71 1.63011 16.72C1.88011 15.3 2.63011 13.99 3.74011 13C4.96011 13.97 6.49011 14.5 8.11011 14.5C9.73011 14.5 11.2601 13.96 12.4801 13M12.3501 10.91H12.3301C11.3601 12.11 9.84011 12.9 8.11011 12.9C6.38011 12.9 4.86011 12.11 3.89011 10.91H3.87011C1.85011 12.18 0.470109 14.19 0.0701093 16.45C-0.199891 17.98 0.330109 19.53 1.50011 20.63C2.35011 21.43 3.50011 21.87 4.70011 21.87H11.5701C12.7701 21.87 13.9201 21.42 14.7701 20.63C15.9401 19.54 16.4701 17.98 16.2001 16.45C15.8001 14.19 14.4201 12.19 12.3901 10.92L12.3501 10.91Z" fill="white"/>
</g>
<defs>
<clipPath id="clip0_1546_103">
<rect width="16.26" height="21.87" fill="white"/>
</clipPath>
</defs>
</svg>
