<svg width="30" height="30" viewBox="0 0 30 30" fill="none" xmlns="http://www.w3.org/2000/svg">
<g clip-path="url(#clip0_3582_5353)">
<path d="M14.1659 22.954C10.0197 22.5394 6.6036 19.2404 6.08082 15.1032C5.6031 11.4347 7.29764 7.98255 10.3983 6.10774C10.6326 5.96352 10.9211 5.97254 11.1464 6.10774C11.3808 6.25196 11.507 6.51335 11.4889 6.77474C11.4709 7.00008 11.4529 7.2164 11.4529 7.45075C11.4529 12.0386 15.1845 15.7702 19.7724 15.7702C20.89 15.7702 21.9807 15.5539 22.9992 15.1213C23.2516 15.0131 23.54 15.0582 23.7473 15.2294C23.9546 15.4007 24.0448 15.6801 23.9907 15.9415C22.9631 20.4032 18.835 23.4227 14.1659 22.954ZM9.65017 8.51435C7.95563 10.2269 7.1354 12.6516 7.55002 15.1844C8.08182 18.4382 10.7498 21.0341 14.0127 21.4848C17.2756 21.9355 20.4934 20.2229 21.9356 17.3927C22.0347 17.1944 21.8545 16.9871 21.6382 17.0231C21.0252 17.1403 20.4033 17.2034 19.7724 17.2034C14.8059 17.2034 10.6957 13.4808 10.0918 8.67659C10.0648 8.46027 9.8034 8.35211 9.65017 8.50534V8.51435Z" fill="#D4D4D8"/>
</g>
<defs>
<clipPath id="clip0_3582_5353">
<rect width="18" height="17.0085" fill="white" transform="translate(6 6)"/>
</clipPath>
</defs>
</svg>
