<svg width="81" height="97" viewBox="0 0 81 97" fill="none" xmlns="http://www.w3.org/2000/svg">
<path d="M56.4768 0.625977H24.4886C16.8148 0.625977 10.594 6.84678 10.594 14.5205V53.3024C10.594 60.9762 16.8148 67.197 24.4886 67.197H56.4768C64.1505 67.197 70.3713 60.9762 70.3713 53.3024V14.5205C70.3713 6.84678 64.1505 0.625977 56.4768 0.625977Z" fill="#B6D0EF"/>
<path d="M40.4672 54.3268C35.9268 54.3268 31.4204 53.1661 27.3579 50.8788C26.2996 50.2984 25.8899 48.9328 26.5044 47.8745C27.0848 46.8162 28.382 46.4407 29.4404 47.021H29.5086C36.3023 50.9129 44.7005 50.9129 51.4941 47.021C52.5524 46.4407 53.8839 46.7821 54.4642 47.8404C55.0787 48.8987 54.7032 50.2301 53.6449 50.8105C49.5823 53.1319 45.0077 54.2927 40.4672 54.2927V54.3268Z" fill="white"/>
<path d="M54.0221 23.6018C54.0221 22.3763 53.0286 21.3828 51.803 21.3828C50.5775 21.3828 49.584 22.3763 49.584 23.6018V26.2988C49.584 27.5244 50.5775 28.5179 51.803 28.5179C53.0286 28.5179 54.0221 27.5244 54.0221 26.2988V23.6018Z" fill="white"/>
<path d="M31.5582 23.6018C31.5582 22.3763 30.5647 21.3828 29.3391 21.3828C28.1136 21.3828 27.1201 22.3763 27.1201 23.6018V26.2988C27.1201 27.5244 28.1136 28.5179 29.3391 28.5179C30.5647 28.5179 31.5582 27.5244 31.5582 26.2988V23.6018Z" fill="white"/>
<path d="M46.3387 44.4605C45.8608 44.4605 45.3828 44.2898 45.0414 43.9143C44.3587 43.1974 44.3587 42.0367 45.0756 41.3539C46.7142 39.7494 45.929 38.7252 45.7242 38.5204C45.3145 38.0424 44.4952 37.7352 43.471 37.6327C42.3103 37.5303 41.3203 36.8134 40.8423 35.721L37.804 28.4835C37.4284 27.5617 37.8381 26.5034 38.7599 26.0938C39.6816 25.7182 40.7399 26.1279 41.1496 27.0497L44.0855 34.014C45.4852 34.1506 47.2605 34.6627 48.4553 36.0965C49.7867 37.5645 50.7426 40.9101 47.6019 43.9485C47.2605 44.2898 46.7825 44.4605 46.3387 44.4605Z" fill="white"/>
<path d="M80.6483 107.275H0.319336L2.64079 86.8603C3.66495 77.7452 11.3804 70.8491 20.5637 70.8491H60.3698C69.5532 70.8491 77.2686 77.7452 78.2928 86.8603L80.6483 107.31V107.275Z" fill="#B6D0EF"/>
</svg>
