<svg viewBox="0 0 70 70" fill="none" xmlns="http://www.w3.org/2000/svg">
<g clip-path="url(#clip0_1164_1102)">
<path d="M52 38.5776H49.6949V20.1139C49.6949 20.1139 49.6488 19.9295 49.5566 19.9064L35.1959 14.4664L20.4434 19.9064C20.4434 19.9064 20.3051 20.0217 20.3051 20.1139V38.5546H18V20.1139C18 19.0766 18.6685 18.1085 19.6597 17.7397L35.1959 12L50.3634 17.7397C51.3315 18.1085 52 19.0536 52 20.1139V38.5776Z" fill="#1967FF"/>
<path d="M34.9654 57.9404L34.3892 57.5946C33.7207 57.2027 18 47.8671 18 38.5776H20.3051C20.3051 45.6773 32.1763 53.5146 34.9654 55.2665C37.7546 53.5146 49.6949 45.6773 49.6949 38.5776H52C52 47.8902 36.2332 57.2027 35.5647 57.5946L34.9885 57.9404H34.9654Z" fill="#1967FF"/>
<path d="M33.8357 37.2407C33.5129 37.2407 33.2363 37.1255 33.0058 36.895L29.5713 33.3451C29.1333 32.8841 29.1333 32.1465 29.5943 31.7085C30.0553 31.2705 30.7699 31.2705 31.2309 31.7316L33.8357 34.4285L38.9068 29.1729C39.3448 28.7119 40.0824 28.7119 40.5435 29.1499C41.0045 29.5878 41.0045 30.3255 40.5665 30.7865L34.6655 36.895C34.458 37.1255 34.1584 37.2407 33.8357 37.2407Z" fill="#1967FF"/>
<path d="M35.0574 43.8332C29.0873 43.8332 24.2466 38.9926 24.2466 33.0224C24.2466 27.0522 29.0873 22.2115 35.0574 22.2115C41.0276 22.2115 45.8683 27.0522 45.8683 33.0224C45.8683 38.9926 41.0276 43.8332 35.0574 43.8332ZM35.0574 24.5397C30.3781 24.5397 26.5978 28.3431 26.5978 32.9993C26.5978 37.6556 30.4012 41.459 35.0574 41.459C39.7137 41.459 43.5171 37.6556 43.5171 32.9993C43.5171 28.3431 39.7137 24.5397 35.0574 24.5397Z" fill="#1967FF"/>
</g>
<defs>
<clipPath id="clip0_1164_1102">
<rect width="34" height="45.9403" fill="white" transform="translate(18 12)"/>
</clipPath>
</defs>
</svg>
