<svg width="169" height="53" viewBox="0 0 169 53" fill="none" xmlns="http://www.w3.org/2000/svg">
<g clip-path="url(#clip0_695_604)">
<path d="M29.4164 19.0487C27.2592 18.2195 25.0621 17.4802 22.8649 16.7375C18.7307 15.3355 14.5831 13.9635 10.8057 11.8422C9.27533 10.983 7.82835 10.0172 6.49806 8.89494C4.03086 6.81024 2.22046 4.26265 1.28693 1.08231C1.18024 0.719321 1.1669 0.269746 0.650124 0C0.516761 0.429595 0.356727 0.772604 0.31005 1.11561C0.0199869 3.13704 -0.106707 5.14515 0.106672 7.12994C0.500091 10.7865 1.99708 13.8369 4.49429 16.3379C6.69477 18.5425 9.35868 20.0811 12.276 21.2633C14.7565 22.269 17.3671 22.9617 19.9376 23.7509C21.5947 24.2604 23.2217 24.8366 24.722 25.6658C25.9856 26.3618 27.1125 27.211 27.9094 28.4332C26.2357 27.1511 24.3053 26.4117 22.2381 25.9222C19.5142 25.2762 16.7803 24.6734 14.0697 23.9874C12.6527 23.6277 11.2491 23.2048 9.89546 22.6919C8.14842 22.0292 6.62142 21.0102 5.24445 19.7913C4.81436 19.4084 4.37093 19.042 3.95751 18.689C3.47074 18.8522 3.59076 19.1453 3.66411 19.3884C5.13443 24.2804 7.90836 28.0535 12.6394 30.1815C14.5465 31.0407 16.5602 31.5969 18.624 32.0697C20.1877 32.4294 21.7347 32.8457 23.2717 33.2819C24.2452 33.5583 25.1021 34.0545 25.8389 34.7206C25.9923 34.8604 26.1156 35.0336 26.4324 35.4033C25.9656 35.3034 25.7456 35.3 25.5789 35.2168C23.7518 34.281 21.7547 33.8148 19.6642 33.575C18.3273 33.4218 16.997 33.2353 15.67 33.0522C13.4262 32.7424 11.4191 31.9765 9.75877 30.5312C9.55872 30.358 9.32867 30.2182 9.10862 30.0683C9.07528 30.045 9.02194 30.0517 8.97193 30.045C8.67186 30.1782 8.70187 30.408 8.76855 30.6311C9.1653 32.0031 9.85879 33.1954 10.739 34.2743C12.5894 36.5455 15.0266 37.9908 17.8572 38.8933C18.6374 39.1431 19.4209 39.3895 20.191 39.6659C20.5278 39.7891 20.8545 39.9556 21.1479 40.1521C21.7614 40.5651 22.0281 41.1412 21.7147 41.9404C21.6447 42.1169 21.4513 42.3001 21.4046 42.4533C21.538 42.8196 21.8514 42.7463 22.1214 42.7497C22.2615 42.7497 22.4048 42.7197 22.5449 42.6964C24.762 42.2901 27.1059 41.7473 29.213 40.8115C32.9971 39.1331 35.5444 36.3124 36.7546 32.4427C38.0182 28.3965 37.1947 24.9365 34.4308 22.1424C33.0338 20.7271 31.2968 19.7713 29.4297 19.0554L29.4164 19.0487Z" fill="#1967FF"/>
<path d="M58.5659 18.6223C50.4975 18.6223 47.4202 22.2556 47.4202 25.6091C47.4202 29.5687 49.3773 31.5235 56.6988 33.2019C58.796 33.7147 59.9162 34.3208 59.9162 35.5763C59.9162 37.3946 57.7724 38.1839 55.2985 38.1839C52.8247 38.1839 51.241 37.3447 51.241 35.4831C51.241 35.25 51.241 35.0168 51.2877 34.7837H45.0396C44.993 35.2033 44.9463 35.6229 44.9463 35.9959C44.9463 40.142 48.5371 42.7496 54.5517 42.7496C61.92 42.7496 66.1642 39.2096 66.1642 34.6439C66.1642 29.7052 63.2736 29.5187 56.7455 27.6571C54.6017 27.051 53.4348 26.4449 53.4348 25.3293C53.4348 23.7441 54.8351 23.1414 57.5857 23.1414C60.3363 23.1414 61.1298 23.7941 61.1298 26.1685H66.9577C67.0044 25.7489 67.0511 25.3293 67.0511 24.9097C67.0511 20.9501 64.5339 18.6223 58.5626 18.6223H58.5659Z" fill="white"/>
<path d="M93.8705 19.2285L87.7592 33.948L86.779 19.2285H80.6243L74.8431 33.948L73.7228 19.2285H67.5215L69.992 42.1469H76.1934L82.1647 28.8228L83.4683 42.1469H89.673L100.305 19.2285H93.8705Z" fill="white"/>
<path d="M105.716 10.843H105.38C104.006 10.843 102.836 11.8288 102.599 13.1808C102.299 14.9025 103.629 16.481 105.38 16.481H105.716C107.09 16.481 108.26 15.4953 108.497 14.1432C108.797 12.4215 107.467 10.843 105.716 10.843Z" fill="white"/>
<path d="M97.5044 42.1469H103.569L107.627 19.2285H101.562L97.5044 42.1469Z" fill="white"/>
<path d="M134.813 27.0544L133.786 33.0154C133.272 35.8561 131.782 37.4879 129.448 37.4879C127.491 37.4879 126.557 36.7419 126.557 34.7405C126.557 34.2276 126.604 33.6215 126.744 32.9222L128.425 23.5144H141.107L141.854 19.2284H129.171L130.245 13.0343H124.277L123.19 19.2284H118.259C118.726 16.5743 119.566 15.7351 122.643 15.7351L123.483 10.843C116.955 10.843 113.271 13.637 112.291 19.2284H108.887L108.14 23.5144H111.544L108.233 42.1468H114.201L117.512 23.5144H122.437L120.683 33.5283C120.543 34.2742 120.496 35.0202 120.496 35.7162C120.496 39.6758 122.733 42.7496 128.425 42.7496C134.906 42.7496 138.403 38.417 139.29 33.5749L140.457 27.0544H134.816H134.813Z" fill="white"/>
<path d="M158.454 19.2285L155.984 33.202C155.564 35.6697 153.327 37.488 150.576 37.488C148.432 37.488 147.265 36.9285 147.265 34.7872C147.265 34.3209 147.359 33.8081 147.452 33.202L149.923 19.2285H143.861L141.251 34.0878C141.157 34.6939 141.064 35.3 141.064 35.8595C141.064 39.8657 143.908 42.38 148.152 42.38C150.996 42.38 153.747 41.1678 154.914 39.1198L154.26 42.8462C153.747 45.8734 151.416 47.7849 149.222 47.7849C146.472 47.7849 145.118 46.7592 145.118 44.5713C145.118 44.1983 145.118 43.8253 145.212 43.4057H139.57C139.43 44.1983 139.337 44.9909 139.337 45.6869C139.337 50.2526 142.181 53 148.012 53C153.843 53 159.205 49.2269 160.371 42.753L164.522 19.2285H158.461H158.454Z" fill="white"/>
<path d="M166.179 38.3838H165.843C164.469 38.3838 163.299 39.3695 163.062 40.7216C162.762 42.4433 164.092 44.0218 165.843 44.0218H166.179C167.553 44.0218 168.723 43.0361 168.96 41.684C169.26 39.9623 167.93 38.3838 166.179 38.3838Z" fill="white"/>
</g>
<defs>
<clipPath id="clip0_695_604">
<rect width="169" height="53" fill="white"/>
</clipPath>
</defs>
</svg>
