<svg width="40" height="40" viewBox="0 0 40 40" fill="none" xmlns="http://www.w3.org/2000/svg">
<path d="M29.2914 11.5564C30.2353 11.5564 30.9875 12.2791 30.9875 13.1545V30.8448C30.9875 31.7342 30.2206 32.4429 29.2914 32.4429H10.7221C9.77811 32.4429 9.0259 31.7203 9.0259 30.8448V13.1545C9.0259 12.2652 9.79286 11.5564 10.7221 11.5564H29.2766M29.2766 9.33301H10.7221C8.48017 9.33301 6.66602 11.0423 6.66602 13.1545V30.8448C6.66602 32.9571 8.48017 34.6663 10.7221 34.6663H29.2766C31.5185 34.6663 33.3327 32.9571 33.3327 30.8448V13.1545C33.3327 11.0423 31.5185 9.33301 29.2766 9.33301Z" fill="#1967FF"/>
<path d="M31.019 16.9219H7.40625V19.1574H31.019V16.9219Z" fill="#1967FF"/>
<path d="M14.4498 14.2254C13.835 14.2254 13.332 13.7224 13.332 13.1076V7.78427C13.332 7.1695 13.835 6.6665 14.4498 6.6665C15.0646 6.6665 15.5676 7.1695 15.5676 7.78427V13.1076C15.5676 13.7224 15.0646 14.2254 14.4498 14.2254Z" fill="#1967FF"/>
<path d="M25.1158 14.2254C24.501 14.2254 23.998 13.7224 23.998 13.1076V7.78427C23.998 7.1695 24.501 6.6665 25.1158 6.6665C25.7306 6.6665 26.2336 7.1695 26.2336 7.78427V13.1076C26.2336 13.7224 25.7306 14.2254 25.1158 14.2254Z" fill="#1967FF"/>
</svg>
