<svg width="40" height="40" viewBox="0 0 40 40" fill="none" xmlns="http://www.w3.org/2000/svg">
<g clip-path="url(#clip0_2563_4183)">
<path d="M19.9193 8.79984C26.0527 8.79984 31.0393 13.7865 31.0393 19.9198C31.0393 26.0532 26.0527 31.0398 19.9193 31.0398C13.786 31.0398 8.79935 26.0398 8.79935 19.9198C8.79935 13.7998 13.786 8.79984 19.9193 8.79984ZM19.9193 6.6665C12.5993 6.6665 6.66602 12.5998 6.66602 19.9198C6.66602 27.2398 12.5993 33.1732 19.9193 33.1732C27.2393 33.1732 33.1727 27.2398 33.1727 19.9198C33.1727 12.5998 27.226 6.6665 19.9193 6.6665Z" fill="#1967FF"/>
<path d="M23.7994 23.2932C23.6128 23.2932 23.4394 23.2532 23.2661 23.1465L19.9461 21.2266C19.2128 20.7999 18.7461 19.9999 18.7461 19.1465V12.9465C18.7461 12.3599 19.2261 11.8799 19.8128 11.8799C20.3994 11.8799 20.8794 12.3599 20.8794 12.9465V19.1465C20.8794 19.2399 20.9328 19.3332 21.0128 19.3732L24.3328 21.2932C24.8394 21.5866 25.0128 22.2399 24.7194 22.7466C24.5194 23.0932 24.1594 23.2799 23.7994 23.2799V23.2932Z" fill="#1967FF"/>
</g>
<defs>
<clipPath id="clip0_2563_4183">
<rect width="26.4933" height="26.4933" fill="white" transform="translate(6.66602 6.6665)"/>
</clipPath>
</defs>
</svg>
