<svg width="20" height="20" viewBox="0 0 20 20" fill="none" xmlns="http://www.w3.org/2000/svg">
<g clip-path="url(#clip0_1084_1168)">
<path d="M19.8333 9.5652C19.725 9.27436 17.0833 2.4502 10 2.4502C2.91667 2.4502 0.271667 9.27436 0.166667 9.5652L0 10.0002L0.166667 10.4352C0.275 10.726 2.91667 17.5502 10 17.5502C17.0833 17.5502 19.7283 10.726 19.8333 10.4352L20 10.0002L19.8333 9.5652ZM10 15.071C5.485 15.071 3.29917 11.3094 2.675 10.0002C3.30083 8.6877 5.4875 4.92936 10 4.92936C14.5125 4.92936 16.6983 8.68686 17.325 10.0002C16.6983 11.3135 14.5125 15.071 10 15.071Z" fill="#A2A2A8"/>
<path d="M9.99996 13.3332C11.8409 13.3332 13.3333 11.8408 13.3333 9.99984C13.3333 8.15889 11.8409 6.6665 9.99996 6.6665C8.15901 6.6665 6.66663 8.15889 6.66663 9.99984C6.66663 11.8408 8.15901 13.3332 9.99996 13.3332Z" fill="#A2A2A8"/>
</g>
</svg>
