<svg width="18" height="18" viewBox="0 0 18 18" fill="none" xmlns="http://www.w3.org/2000/svg">
<g clip-path="url(#clip0_2703_711)">
<path d="M13.6461 4.77871C14.118 4.77871 14.4941 5.14002 14.4941 5.57776V14.4229C14.4941 14.8676 14.1107 15.2219 13.6461 15.2219H4.3614C3.88942 15.2219 3.51332 14.8606 3.51332 14.4229V5.57776C3.51332 5.13307 3.8968 4.77871 4.3614 4.77871H13.6387M13.6387 3.66699H4.3614C3.24045 3.66699 2.33337 4.52163 2.33337 5.57776V14.4229C2.33337 15.479 3.24045 16.3337 4.3614 16.3337H13.6387C14.7596 16.3337 15.6667 15.479 15.6667 14.4229V5.57776C15.6667 4.52163 14.7596 3.66699 13.6387 3.66699Z" />
<path d="M14.5102 7.46094H2.70386V8.5787H14.5102V7.46094Z" />
<path d="M6.22563 6.11294C5.91825 6.11294 5.66675 5.86144 5.66675 5.55405V2.89238C5.66675 2.58499 5.91825 2.3335 6.22563 2.3335C6.53302 2.3335 6.78451 2.58499 6.78451 2.89238V5.55405C6.78451 5.86144 6.53302 6.11294 6.22563 6.11294Z" />
<path d="M11.559 6.11294C11.2516 6.11294 11.0001 5.86144 11.0001 5.55405V2.89238C11.0001 2.58499 11.2516 2.3335 11.559 2.3335C11.8664 2.3335 12.1179 2.58499 12.1179 2.89238V5.55405C12.1179 5.86144 11.8664 6.11294 11.559 6.11294Z" />
</g>
<defs>
<clipPath id="clip0_2703_711">
<rect width="18" height="18" fill="white"/>
</clipPath>
</defs>
</svg>
